<svg xmlns="http://www.w3.org/2000/svg" width="163" height="141" style="enable-background:new 0 0 163 141" xml:space="preserve"><radialGradient id="a" cx="-69.208" cy="117.486" r="29.636" gradientTransform="matrix(-1 0 0 1 22.23 0)" gradientUnits="userSpaceOnUse"><stop offset=".77" style="stop-color:#312839"/><stop offset="1" style="stop-color:#716b76"/></radialGradient><path d="M81.7 140.2h5s19 0 24.5-2.2 12.5-15.3 12.5-20.7c0-5.3-42-2-42-2v24.9z" style="fill:url(#a)"/><linearGradient id="b" gradientUnits="userSpaceOnUse" x1="11.544" y1="61.61" x2="27.831" y2="108.521"><stop offset="0" style="stop-color:#5f435f"/><stop offset="1" style="stop-color:#312839"/></linearGradient><path d="M36.7 57s-23-1-32 27.5.8 34.7 7 34.7h25V57z" style="fill:url(#b)"/><linearGradient id="c" gradientUnits="userSpaceOnUse" x1="-205.556" y1="61.61" x2="-189.269" y2="108.521" gradientTransform="matrix(-1 0 0 1 -53.1 0)"><stop offset="0" style="stop-color:#5f435f"/><stop offset="1" style="stop-color:#312839"/></linearGradient><path d="M127.3 57s23-1 32 27.5-.8 34.7-7 34.7h-25V57z" style="fill:url(#c)"/><radialGradient id="d" cx="71.887" cy="117.486" r="29.636" gradientUnits="userSpaceOnUse"><stop offset=".77" style="stop-color:#312839"/><stop offset="1" style="stop-color:#716b76"/></radialGradient><path d="M81.6 140.2h-5s-19 0-24.5-2.2-12.5-15.3-12.5-20.7c0-5.3 42-2 42-2v24.9z" style="fill:url(#d)"/><linearGradient id="e" gradientUnits="userSpaceOnUse" x1="81.689" y1="1.5" x2="81.689" y2="124.833"><stop offset="0" style="stop-color:#6d4f6f"/><stop offset="1" style="stop-color:#382f41"/></linearGradient><path d="M135.4 104.5S126.6 45 122 24.3c-1.9-8.1-11-22.8-32.7-22.8H74.5C55 1.5 43.2 16.2 41.4 24.3 36.8 45 28 104.5 28 104.5c-3.2 13.5 7.5 15.8 7.5 15.8 16 4.2 46.2 4.5 46.2 4.5s30.2-.3 46.2-4.5c0 0 10.6-2.3 7.5-15.8z" style="fill:url(#e)"/><circle cx="56.4" cy="95" r="10.5" style="fill:#352b3d"/><linearGradient id="f" gradientUnits="userSpaceOnUse" x1="81.637" y1="1.128" x2="81.637" y2="57"><stop offset="0" style="stop-color:#4f4358"/><stop offset="1" style="stop-color:#3b3144"/></linearGradient><path d="M109.1 44.2 104.4 5C98.7.9 82.7 1.1 81.7 1.2c-1 0-17-.2-22.7 3.8l-4.7 39.2S51.8 57 64.3 57h34.9c12.4 0 9.9-12.8 9.9-12.8z" style="fill:url(#f)"/><path d="M95.4 52.3s-.3-8.2 10.7-8.2 10.7 7.2 10.7 7.2l4 26.8s1.2 10-7.7 10h-11.2s-6.5-.8-6.5-8.3V52.3z" style="fill:#312839"/><linearGradient id="g" gradientUnits="userSpaceOnUse" x1="81.689" y1="119.167" x2="81.689" y2="132"><stop offset="0" style="stop-color:#6d4f6f;stop-opacity:0"/><stop offset="1" style="stop-color:#4c3c53"/></linearGradient><path d="M135.4 104.5c3.2 13.5-7.5 15.8-7.5 15.8-16 4.2-46.2 4.5-46.2 4.5s-30.2-.3-46.2-4.5c0 0-10.7-2.3-7.5-15.8h107.4z" style="fill:url(#g)"/></svg>