<svg xmlns="http://www.w3.org/2000/svg" width="294" height="593" style="enable-background:new 0 0 294 593" xml:space="preserve"><radialGradient id="a" cx="249.871" cy="521.15" r="62.179" gradientTransform="matrix(1 0 0 -1 0 606.4)" gradientUnits="userSpaceOnUse"><stop offset="0" style="stop-color:#828282"/><stop offset="1" style="stop-color:#1f1a25"/></radialGradient><path d="M215.3 30.6c15.2 7.6 30.4 11 45.6 18.7 6.7 3.4 9.8 9.1 10.8 16.7 1.3 9.8 3.1 19.7 5.5 29.3 3.6 14.7 7.3 29.4 7.3 44.6L215.3 30.6z" style="fill:url(#a)"/><path d="M0 296.3 155 0c20.1 10 40.2 20 60.2 30 15.2 7.6 30.4 15 45.6 22.7 6.7 3.4 9.8 9.1 10.8 16.7 1.3 9.8 3.1 19.7 5.5 29.3 3.6 14.7 7.3 29.4 7.3 44.6.1 14.2-.3 28.5-1.1 42.7-.3 6.3-1.6 12.5-3 18.7-1.4 6.3-.5 12 1.7 18 1.5 3.9 2.3 8.4 2.1 12.5-.4 9.9-2.6 19.6-.2 29.7 1 4-1.1 8.8-1.6 13.2-.7 7.5-1.4 15.1-1.9 22.7-.8 13.7-1.8 27.5-2 41.2-.1 10.6 1.4 21.2 1.3 31.7 0 14.4-.1 28.8-1.5 43.1-2.2 23.1-5.2 46.2-8.3 69.2-.9 7-4.1 13.8-4.9 20.8-1 8.7-.5 17.6-.6 26.4-.1 6.3 0 12.5-.5 18.8-.1 1.5-1.9 3.5-3.5 4.3-24.2 12.2-48.5 24.1-72.7 36.2L0 296.3z" style="fill:#1f1a25"/></svg>