<svg xmlns="http://www.w3.org/2000/svg" width="329" height="591" style="enable-background:new 0 0 329 591" xml:space="preserve"><path d="M0 277.5 186.6 0c27.3 13.5 54.6 26.9 81.9 40.5 1.8.9 3 3 4.3 4.7 3 3.9 6 8 8.9 12 .6.8 1.3 1.5 1.7 2.4 4.1 7.5 8.8 14.9 12.1 22.7 2.5 5.9 3.4 12.5 4.8 18.8 1.6 7.3 3.1 14.6 4.3 22 1.4 8.2-1.3 15.5-5.1 22.6-5.1 9.5-7.7 19.2-5.4 30.2 1.3 6.4 4.4 11.7 7.3 17.3 1 2 1.7 4.3 1.8 6.5.4 43.4.7 86.9 1.1 130.3 0 3.1.3 6.4 1.3 9.2 6 16.3 7.2 33.2 7.6 50.4.2 9.3 2.2 18.6 2.7 28 .6 11.7-1.7 23.2-5 34.3-2.6 8.9-5.6 17.7-9.2 26.2-1.6 3.7-5.6 6.2-8 9.6-4 5.7-7.9 11.6-11.4 17.7-2.9 5-5.7 10.2-7.7 15.7-1.4 3.9-1.3 8.4-2 12.6-.7 4.3-3.6 7-7.3 8.8-7.8 3.9-15.8 7.5-23.7 11.3-10.3 5.1-20.6 10.3-30.9 15.5-13.9 7-27.7 14.2-41.6 21.2L0 277.5z" style="fill:#1f1a25"/></svg>