<svg xmlns="http://www.w3.org/2000/svg" width="438" height="1040" style="enable-background:new 0 0 438 1040" xml:space="preserve"><radialGradient id="a" cx="523.086" cy="70.613" r="507.01" gradientUnits="userSpaceOnUse"><stop offset="0" style="stop-color:#423447"/><stop offset="1" style="stop-color:#1f1a25"/></radialGradient><path d="M452.9 1071c-180.2-7.1-360.3-14.2-540.6-21.2C-74 700.3-60.3 347-46.5-2.4c11.3.1 22.7.5 34 .5 27.3.2 54.6 1.1 82 1.3 8 .1 16 .3 24 .2 10.3-.1 20.6-.3 30.9-.6 23.1-.6 46.2 4.1 69.4 2.6 24.1-1.6 48.3.5 72.4 1 .8 0 1.7.2 2.5.3 17.6 2 35.4 4.5 53 6 14.5 1.2 29 .7 43.5 1.6 8.5.5 16.8 1.8 25.2 3.4 14.6 2.9 29.1 6.4 43.7 9.5 6.6 1.4 7.4 2.1 7.7 8.7.2 3.6.1 7.3-.3 11-3.5 33.3-7 66.6-10.7 99.9-2 17.5-4 35.1-6.8 52.5-1.5 9.3 1.4 15.4 9.6 19.7 5.7 3 8.4 8.2 8.6 14.8.4 8.5.9 16.9 1.6 25.5.7 9.4 2 18.5 10.7 24.4 5.9 4 7.6 10.2 7.1 17.2-.1 1.7-.4 3.5 0 5 .7 2.3 1.4 5.2 3 6.7 6.2 5.9 12 11.9 13 21.1.3 2.7 1.3 5.6 2.7 8 4.1 7.4 4.8 15 3.4 23.3-3.8 21.7-7.1 43.4-11 65-2 11.3-4.5 22.4-7 33.7-.9 3.9-3.1 7.4-4 11.2-3.1 12.4-6.1 24.9-8.9 37.3-3.6 16-7.1 32-10.7 48-1.7 7.1-3.1 14.4-5.5 21.2-7.7 20.6-14.1 41.5-15.8 63.6-.6 8.8-2.5 17.4-4 26.2-2.3 13.1-4.9 26.1-7.4 39.1-2.3 11.7-3.9 23.7-7 35.3-3.5 13.7-8.2 27-12.5 40.4-2.8 8.5-6.2 16.8-9 25.3-.5 1.3-.4 3.3.2 4.3 5.6 9.1 13.9 14.5 24.7 16 11.7 1.7 17.7 8.9 17.4 20.7-1.2 54.7-2.5 109.3-3.8 164-.1 4.9 1.5 7.6 6 9.6 5.9 2.6 11.2 6 13.9 12.8 2 5 4.7 10.2 8.6 13.7 4.2 4 6.4 7.8 5.8 13.3-.8 3.1-.7 6.1-.8 9.1z" style="fill:url(#a)"/><linearGradient id="b" gradientUnits="userSpaceOnUse" x1="345.361" y1="201.637" x2="627.036" y2="-186.488" gradientTransform="rotate(2.249 229.088 520.489) scale(.99997)"><stop offset="0" style="stop-color:#907690;stop-opacity:.1"/><stop offset="1" style="stop-color:#907690"/></linearGradient><path d="M234.2 6.3c-6.1-1.4-12.3-2.6-18.8-3.8 1.3-.5 2.3-1 3.4-1.5 16 .6 32 1.3 48 1.9 2.9.7 5.7 1.8 8.7 2.1 16.3 1.7 32.7 3.8 49.1 4.9 11.6.9 23.3-.3 34.9.8 13.6 1.2 26.9 4 40.4 6 4.1.7 8.3 1 12.2 1.9 8.4 1.8 16.9 3.5 25.1 6.2 2.1.7 4.1 4.8 4.3 7.5.5 5.9-.1 12-.5 18-.8 9.3-1.8 18.5-2.9 27.8-1.6 14.3-3.1 28.7-4.9 43.1-1.8 14.8-3.7 29.7-5.7 44.5-.9 6.6-1.8 13.1-2.9 19.7-.3 1.3-.7 2.6-1.5 3.5-5.8 7-8.8 15.2-10.6 23.9-.5 2.3-1.2 4.6-2.2 6.6-.5 1.1-2.4 2.5-3.2 2.3-1.1-.3-2.3-2-2.5-3.2-.6-6.6-1.1-13.3-1.5-19.9-.7-12.4-1.3-24.9-1.9-37.3-.5-9.8-.3-19.6-1.6-29.4-.8-6.1-3.3-12-5.6-17.8-2.2-5.5-4.8-10.7-.6-16.4.7-1.1 0-3.6-.7-5-1.1-2.1-3-3.9-4.6-5.9-5.1-6.5-4.9-10.1 1.1-15.7 2.5-2.2 5-4.4 7.7-6.4 2.9-2.2 3.3-4.7.7-7.1-2.4-2.2-5.2-4-8.1-5.7-2.9-1.8-6.4-3.1-9.1-5.1-4.9-3.5-4.9-5.7-.8-10.1.8-1 1.6-1.9 2.9-3.6-1.9-.7-3.2-1.3-4.5-1.6-19.8-3.5-39.6-7.1-59.4-10.1-17.7-2.8-35.6-4.6-53.3-7.5-10.6-1.9-20.8-5.2-31.1-7.6zm81.9 77.9c.1-.5.1-1 .3-1.5-1-1.2-1.9-2.4-3.7-4.6 3.4-2.1 6.3-5.4 9.3-5.3 7.1-.1 14.4.6 21.2 2.3 8.6 2.1 16.7-2 18.5-10.8-1.9-.5-3.9-.8-5.7-1.4-8.4-2.7-16.7-5.8-25.2-8.2-7.1-2.1-14.1-4.5-21.9-2.4-4 1-8.8-.1-13.2-.3-.1-.4-.2-.8-.2-1.3 2.4-.6 5-1.2 7.4-1.8-17.8-3.1-35.7-9-52.6 3.8-.1-.6-.3-1.2-.3-1.9 3.3-2 6.6-4 9.7-6-48.5-4.3-96.6-6.6-144.8-6.8-.2.9-.5 1.9-.6 2.8 15.3 6.3 30.5 12.5 46.4 19-13.8-.5-27.1-1.3-40.4-1.5-3.8 0-7.6 1.3-11.3 1.8-8.5 1-17.2 1.8-25.7 2.8v1c5.6 1.9 11.2 4.4 17 5.7 9.7 2.1 19.7 3.6 29.5 4.8 12.7 1.6 25.4 2.8 38.2 3.8 8.8.6 17.6.5 26.4 1.1 8.2.6 15.9-.1 23.3-3.9 1.1-.7 2.4-.9 3.8-1.4.1.2.2.5.3.7-2.2 1.4-4.3 2.8-7.5 5 34.5 5 68.3.7 101.8 4.5zm162.6 251.9c-1.2-2-2-4.7-2.1-7.1-.4-5.7-3.4-9.7-7.2-13.7-3.6-3.7-9.2-6.5-8.3-13.2.1-.6-1.7-1.8-2.9-2.2-1.5-.6-3.2-.6-6.3-1.1 2.5-1.6 3.7-2.4 4.9-3.2 4.7-2.9 5.2-5.8 1.7-10.2-.9-1-2-1.8-2.8-2.8-3.4-4.7-10.4-7.1-10.6-13.9-.1-5.6-3.4-7.8-7.7-9.7-6.8-2.8-13.8-5.1-20.1-8.8-6.4-3.8-12.2-2.5-18.8-1.2 1.5 6 5.2 9 9.6 12.1 5.9 4.1 12 8.7 16.6 14.2 6.1 7.4 10.1 16.7 17.3 23.5 3.9 3.6 6.7 8.3 10.6 11.8 2.9 2.5 4.2 5.2 3.4 8.6-1.8 8-2.9 16.6-6.1 24-7.9 17.4-6.9 35.7-7.6 53.9-.4 11.3-1.2 22.6-2.8 33.6-1.6 10.6-4.4 21.1-7 31.6-1.7 6.4-3.8 12.8-5.8 19.2-.5-3.1-.1-6.1.4-9 1.5-11 3.1-22.1 4.5-33 .7-5.1 1.5-10.1 2-15.3.7-7.1 1.1-14.3 1.2-21.5 0-1.2-1.5-3.3-2.6-3.5-6.7-1.6-11.3 2.8-12.7 9.8-2.6 13.7-5.5 27.3-9.1 40.8-2.6 9.7-5.5 19.1-5.8 29.3-.3 11.6-.9 23.3-2.5 34.8-1.3 9.5-4 18.8-6.4 28.1-.6 2.6-2.4 4.8-3.2 7.3-1.4 4.2 3.7 11.4 6.4 9.5 4.7-3.2 9.9-6.7 12.8-11.4 7.1-11.6 8.9-24.8 9.1-38.4.1-7.2 2.1-14.3 3.1-21.5.5.1 1 .1 1.4.3-.3 2.5-.8 4.9-1 7.4-.7 8.3-1.5 16.6-1.9 24.8-.1 3.8 1.9 5.1 5.9 4.2 4.5-1 9.2-1.9 13.8-1.8 5.1.3 7.5-1.6 8.2-6.3.3-1.8.7-3.6 1.2-5.4 4.5-18.7 7.8-37.8 15.2-55.7 1-2.5 1.6-5.1 2-7.7 4.1-24 8.3-47.9 12.4-71.8 3-13.5 5.2-26.7-2.4-39.4zM430.8 356c1.9-2.7 3.6-5.7 4.5-8.8 2.1-7.8 4.8-15.1 10.2-21.3 1.7-1.9 2.7-4.9 2.9-7.4 1-10.9-6.2-17.2-13.7-22.9-7.7-5.9-15.8-10.8-19-21-1.6-4.8-5.1-8.5-10.3-11-3.7-1.7-6.9-5.3-9.5-8.6-5.8-7.5-11.2-15.4-16.3-22.5-14.5 1.8-27.8 3.5-41.2 5.2 6.8 8.5 13.3 16.7 19.8 24.9 2.8 3.5 6.4 6.5 8.6 10.2 2.7 4.6 4.8 8.8 11.5 3.2.2.8.3 1.6.5 2.5-.8.2-1.8.2-2.4.7-4.2 3.1-4.5 4.8-1.2 8.9 1.6 2.1 3.9 3.7 5.4 5.9 13.8 20.5 27.4 41.1 41.2 61.7 2.3 3.5 6.6 3.8 9 .3zm-55.6-174.1c1.2 2.2 1.6 5.1 2.1 7.6 1.9 10.3 3.6 20.7 10 29.4 1.2 1.7 3.1 3.1 4.6 4.7 1.6-1.8 3.3-3.6 4.5-5.6.8-1.5.8-3.6.7-5.3-.7-10.2-1.6-20.5-2.5-30.7-.2-2.3-.9-4.5-1.4-6.9-1.2-6.2-3.9-12.6-3-18.5 1.5-11 3.6-21.7-2.3-32-.3-.5-.4-1.3-.4-1.9-.7-11.8-4.7-22.7-9.4-33.5-1.6-3.9-1.8-8.7-1.7-13.1.1-2.9.4-5.2-2.3-6.9-2.9-1.8-5.9-3.2-9.2-.7-2.8 2.1-6 3.7-8.4 6.1-2 1.9-3.1 4.7-4.7 7.1 1 3.8 1.7 7.2 2.9 10.2 2.7 6.8 6.1 13.5 8.7 20.5 4.8 12.6 6.8 25.6 5.6 39.1-1 10.7 1.3 20.8 6.2 30.4zm-36 48.8c8.4-.4 16.9-1.4 25.2-2.8 4.9-.8 6.7-7.4 3.2-11.1-6.4-6.8-12.9-13.5-22.6-15.6-2.9-.6-5.6-2-8.4-3-11.1-4.2-21.9-9.8-34.2-10.5-5.6-.3-11.3.1-17.6.1 2.1 6.5 6 8.8 10.3 10.8 4.7 2.1 10 3.4 14 6.4 7.9 6 14.9 12.9 22.3 19.6.6.5.7 1.6 1.3 2.1 2.1 1.4 4.3 4.1 6.5 4zm96.9 296.2c-13.4-.4-14 .1-14.5 13.5-.3 7.5-.6 15-1.4 22.4-.6 6.2-2.6 12.3-3 18.5-.5 8.6-.2 17.2-.2 25.9 0 5.8.9 6.8 7 7.6 9-28.9 20.1-56.7 22.9-87.5-3.6-.1-7.2-.2-10.8-.4zM415.3 223c-.6 4.5-2.9 6.3-6.7 7.4-4.7 1.3-9.3 2.6-13.8 4.2-1.4.4-3.7 2-3.6 2.8.1 1.5 1.4 3.7 2.7 4.3 2 .9 4.4.7 6.6.8 4.6.2 9.4-.8 13.7.4 6.9 2.2 13.4 5.8 20 8.9 2.9 1.3 5.6 2.7 9 4.4-.3-7.3-.6-13.6-.7-19.9-.3-8-2-15.1-9-20.5-9.7-7.4-16.3-7-18.2 7.2zm15.9 140.5c-5.6-.1-8.4 1.4-8.7 5.8-.4 4.8-.4 9.6-.6 14.4-.2 4.8 2.8 7.7 6.3 10.1 3.5 2.3 7 .5 7.4-3.8.3-3.3.3-6.6.4-10 .1-3.3.2-6.6.4-10 .3-3.8-.6-6.4-5.2-6.5z" style="fill:url(#b)"/><linearGradient id="c" gradientUnits="userSpaceOnUse" x1="230.519" y1="277.264" x2="469.758" y2="63.788" gradientTransform="rotate(2.249 229.088 520.489) scale(.99997)"><stop offset="0" style="stop-color:#fcfcfc;stop-opacity:0"/><stop offset="1" style="stop-color:#fcfcfc"/></linearGradient><path d="M268.7 2c1.7.8 3.2 1.4 4.9 2.2-11.5-.5-23.1-.9-34.6-1.4v-.5c5.9-.3 11.7-.5 17.6-.8 4.1.1 8.1.3 12.1.5zm4.9 2.2c13.4 1.4 26.7 3.4 40.2 4.2 15.8 1 31.6 1.1 47.4 1.7 4 .2 8-.2 11.9.5 16.7 2.8 33.4 5.7 50 8.9 5.7 1.1 11.3 2.9 16.6 5 1.6.7 3.4 3.1 3.5 4.8.5 5.9.5 11.9.1 17.8-.6 9.1-1.4 18.3-2.5 27.3-2.1 18.3-4.5 36.6-6.8 54.9-1.6 13.3-3.3 26.7-5 40-.6 4.9-1.4 9.8-2.4 14.5-2.3-15.1-1.7-30.1 1-45 .3-1.5.6-3 .7-4.5 1-16.1 2.3-32.2 2.9-48.3.5-12-.1-23.9.1-35.9.1-4.8.6-9.6 1-14.4.2-3.1-1.1-4.6-4.1-6-8.7-3.9-17.9-4.4-27.2-5.8-11.6-1.8-23.2-4.2-34.8-6.5-12.1-2.4-24.2-3.3-36.6-3.7-15.2-.6-30.1-4.5-45.3-7-3.4-.5-7-1.6-10.7-2.5zm201.2 345.3c6.9-.5 7.7-1.9 4.7-9.2-2.5-5.9-4.6-12.1-7.5-17.9-1.5-3.1-4.3-5.5-6.5-8.2-1.5-2-4.1-3.8-4.4-5.9-.8-6.1-4.6-7.9-9.8-8.6-1.2-.1-2.4-1-3.3-2.2 4.2.2 8.4 0 12.5.7 1.3.2 3.3 2.3 3.3 3.5-.2 5.1 2.9 8.1 6.3 10.8 5.1 3.8 8.2 8.5 9 14.9.2 1.8.6 3.7 1.4 5.3 9.8 17 5 34.5 2 51.9-2.1 11.5-5.2 23-7.4 34.6-.5-.1-1-.1-1.6-.3 1.5-9.9 4-19.9 5.3-29.9.4-3.1.5-6.3.6-9.4.1-7.1.5-14.3-.2-21.3-.2-2.9-2.8-5.7-4.4-8.8zm-81.2-204.9c-1.7-3.7-3.6-7.2-4.8-11-2-6.3-3-12.8-4.9-19.2-3.6-11.9-7.8-23.6-11.5-35.5-2.5-7.9-2.6-8.1-10.1-4.5-.5.3-1.1.3-2 .5 2.3-2.8 4.1-5.4 6.4-7.7.9-1 3.3-1.8 4.3-1.2 2.3 1.2 6 3.2 5.9 4.9 0 10.8 4.2 20.6 9 29.3 5 8.9 5 18.4 7.9 27.5.8 2.3 1.9 4.7 2.3 7.1.5 3 .5 6.1.6 9.2-1.2.1-2.1.4-3.1.6zM124.5 37.4c45 .8 90 1.1 136.3 4.8-6.3 4.6-11.8 4-17.5 3.5-14.7-1.2-29.3-1.9-44-2.6-4-.3-8-.2-12-.3-12-.2-23.9.1-35.9-.6-9.1-.6-18-2.3-27.1-3.5 0-.4.2-.9.2-1.3zm173.9 149.4c12.9-2.5 23.7.7 34 4.4 11.1 3.9 21.7 9.3 32 14.8 4.1 2.2 7.3 6.2 10.5 9.7.7.8.5 3.8-.4 4.3-1.2.8-3.7 1.1-4.8.3-7.7-5.4-15-11.6-22.9-16.7-4.4-2.8-9.6-4.3-14.7-6-10.6-3.6-21.5-6.9-33.7-10.8zM401 249c8.3-2.9 15.7-3.1 23 1.5 5.3 3.3 11.4 5.5 16.9 8.6 1.4.8 2.1 2.8 2.8 4.4 1.3 2.5 1.9 5.6 3.6 7.5 3.9 4.5 8.8 8.2 12.7 12.6 1.8 2 2.5 5 3.6 7.5-.5.4-.9.7-1.4 1-1.1-.8-2.1-1.6-3.1-2.5-2.7-2.7-5.7-5.2-8-8.2-10.9-14.4-26.5-21.7-42.6-28.1-2.6-1-5-2.8-7.5-4.3zm8.4 17.7c-3.9-3.2-8-6-11.5-9.6-4.8-4.7-9.1-10.1-13.9-14.8-1.3-1.4-3.9-1.9-5.9-1.9-10.3-.5-20.6-.6-30.9-1-1.9-.1-3.8-.9-5.6-1.4 0-.6.1-1.1.2-1.7 4.2-.6 8.4-1.5 12.6-1.8 8.7-.9 17.6-1.6 26.3-2.1 1.8-.1 4.4.9 5.6 2.2 4 4.7 7.4 9.7 11.2 14.5 3.4 4.3 7 8.5 10.4 12.6 1 1.1 2 2.1 3 3.1-.7.8-1.1 1.4-1.5 1.9zm7.9-134.6c-.4-1.6-1.3-3.4-1.2-5 .4-9.9-4.3-17.5-11-24.1-1.9-2-4.9-3.8-2.6-8.6 5 3 9.7 5.8 14.9 8.9 1.2-2.5 2.5-4.9 3.8-7.5-1.1 12.2 4.4 24.8-2.3 36.2-.6 0-1.1.1-1.6.1zm-97-82c6.6 2.2 12.5 4.1 18.6 5.9 6.6 2.1 13.5 3.7 20 6 1.5.5 3.5 3 3.1 4.1-.7 2.8-2.9 3.4-5.9 2.3-12.1-4.5-24.4-8.8-36.5-13.2-1.5-.6-2.6-1.8-4-2.8 1.7-.7 3.2-1.5 4.7-2.3zm101.2 232.2c-.7-.4-1.6-.7-2.1-1.2-8.2-7.8-17.5-6.5-27-3.3-4.8 1.6-9.9 2.4-14.9 3.6-.2-.5-2.3-2-2.5-2.5 3.2-1.7 8.1-2.6 11.4-3.8 6.8-2.3 13.6-4.4 20.6-6.2 5.1-1.3 9.1 0 11.4 5.4 1 2.5 2.7 4.8 4.1 7.2-.4.3-.7.6-1 .8zm21.3-36.2c-1-3.8-1.6-7.6-2.1-11.4-.7-6.3-3.1-11-9-13.9-2.6-1.2-5-2.7-7.1-4.5-1.1-.9-2.2-3.8-1.7-4.2 1.2-1.2 3.9-2.6 4.8-2.1 7.2 4.6 15.4 8.6 16.4 18.7.6 5.7.1 11.4.6 17.1-.6.1-1.2.2-1.9.3zm-45-33.3c-1.7-10.3-4.6-20.6-4.8-30.9-.2-10.3-4.7-18.1-9.8-26.1-.6-.8-1.1-1.6-1.7-2.5-.1-.1.1-.3.1-.4 12.6 8.4 17.4 20 15.4 34.9-.4 3.5.6 7.2 1.2 10.8.9 4.7 2.4 9.5-.4 14.2zM263.9 46.1c7.5-6.2 29.7-5.4 36 1.4-1.7.7-3.4 2.1-4.8 1.9-10.2-.9-20.4-2.1-31.2-3.3zm163.6 24c-9.5.4-18.6-.6-27.7-4.6 2.4-4.3 6.1-5.3 9.5-4.6 6.7 1.1 14.1 1.9 18.2 9.2zm-14.6 220.6c10.5 1 21.1.7 30.2 7.8 5.1 4 9.1 11.6 7.2 17.9-.7-1.6-1.4-2.7-1.7-3.8-2.9-9.9-8.3-13.7-18.2-15.2-6.1-.9-12-3.5-18-5.4.1-.4.3-.9.5-1.3zm5 12.1c-11-2.6-21.9-5.3-32.9-7.9.1-.6.2-1.2.5-1.9 11.7-.8 22.7 1.8 33 7.9-.4.7-.5 1.4-.6 1.9zm8.7-69.9c-11.9.6-22.6 1.2-33.7 1.8 7.9-6.5 26.6-7.9 33.7-1.8zm-62.5 19.3c7.3-.5 14 .6 19.7 7.9-8-1.3-14.6-2.6-19.7-7.9zm70.8 111.7c-3.2.1-6.5.2-10.4.4 2.9-4.8 6.4-5.1 10.4-.4z" style="fill:url(#c)"/></svg>