<svg version="1.1" id="Layer_1" xmlns="http://www.w3.org/2000/svg" x="0" y="0" width="419" height="594" style="enable-background:new 0 0 419 594" xml:space="preserve"><style>.st1{fill:#1f1a25}</style><radialGradient id="SVGID_1_" cx="283.029" cy="321.412" r="275.471" gradientTransform="matrix(1 0 0 -1 0 615)" gradientUnits="userSpaceOnUse"><stop offset="0" style="stop-color:#fff"/><stop offset="1" style="stop-color:#1f1a25"/></radialGradient><path d="M222.6 590.2c22.8-11.4 42.8-18.5 65.6-29.9 1.5-.7 3-2.8 3.2-4.4 2.5-20.9 4.8-41.9 7-62.9 2.2-21.9 6.2-43.3 14.4-63.8 5.9-14.8 11.9-29.8 25.5-39.8 3.1-2.3 6.2-4.9 8.7-7.9 11.4-13.5 22.5-28.3 35.2-40.4 17.5-16.5 17.9-38.3 22.2-58.7.2-.8-.5-1.9-.8-2.8-5.6-17.3-14.8-36.1-29.4-45.4-.6-3.7 3.2-4.4 2.2-5.7-9-11.4-18.1-22.7-27.3-34-2.9-3.5-6.1-6.9-9.2-10.2-2.1-2.2-5.2-3.9-6.3-6.5-4.9-12-9.2-24.2-13.6-36.4-5.5-15.1-10.5-30.4-16.8-45.2-3.9-9.2-3.3-19.7-11.4-28-11.8-12-23.7-23.3-38.9-30.7-25.3-12.5-50.7-17.9-76-30.4l45.7 583.1z" style="fill:url(#SVGID_1_)"/><path class="st1" d="M-210 808.5h-250M0 297.1 172.8 0c25.3 12.5 50.7 24.9 76 37.4 15.2 7.5 27.1 18.7 38.9 30.7 8.1 8.3 7.5 18.8 11.4 28 6.3 14.8 11.3 30.1 16.8 45.2 4.5 12.2 8.8 24.4 13.6 36.4 1 2.6 4.2 4.3 6.3 6.5 3.1 3.3 6.3 6.7 9.2 10.2 9.2 11.2 18.3 22.5 27.3 34 1 1.3.7 3.6 1.4 7.3 14.5 9.3 20.3 26.6 25.8 43.9.3.9 1 2 .8 2.8-4.3 20.4-2.7 42.2-20.2 58.7-12.7 12-22.8 26.9-34.2 40.4-2.5 3-5.6 5.5-8.7 7.9-13.5 10.1-19.5 25-25.5 39.8-8.2 20.5-12.2 41.9-14.4 63.8-2.1 21-4.5 41.9-7 62.9-.2 1.6-1.7 3.7-3.2 4.4-22.8 11.4-45.7 22.6-68.6 33.9L0 297.1z"/><path d="M373.8 235.8s-4.2-1.5-9.9-2.8c-.5-.1 2.4-1.6 2.4-1.6s-5.1 1-5.7.8c-5.7-1.2-12.2-2.1-17.6-1.6-12.1 1.1 15.4-2.7 29.5-.2 0 0 .7.1.7.4.1 1.1.6 5 .6 5z" style="fill:#a5a3a7"/></svg>