<svg xmlns="http://www.w3.org/2000/svg" width="600" height="1026" style="enable-background:new 0 0 600 1026" xml:space="preserve"><radialGradient id="a" cx="515" cy="833" r="592.393" gradientTransform="matrix(1 0 0 -1 0 1026)" gradientUnits="userSpaceOnUse"><stop offset="0" style="stop-color:#423447"/><stop offset="1" style="stop-color:#1f1a25"/></radialGradient><path d="M534.8 851.9c-.7 1.2-1.1 2.7-2.1 3.3-7.9 4-7.1 11.5-6.5 17.9 2.3 24.5-1.4 48.9-1.2 73.3.1 12.9-4.6 24.4-6.3 36.6-.6 4.2-4.5 7.8-6.9 11.7-1.6 2.4-3.9 4.6-5.1 7.2-6.7 13.8-17 24.2-30.7 30.9-7.1 3.5-10.4 8.9-10.7 16.5l-.9 13.5c-177.7-10.7-355.4-21.4-533-32.1C-48 686.6-27.3 343.1-6.6-.5 24.5.7 55.5 2.1 86.6 2.8c20.5.4 41.2-.5 61.7-.6 11.8-.1 23.6.5 35.4.6 5.6 0 11.3-.6 16.9-.9C256.5 5.3 312.4 8.6 368.3 12c5.1.9 10.1 2 15.2 2.7 17.6 2.6 35.3 4.9 52.9 7.3 4.3.7 6.3 2.9 7.9 7 12.3 32.8 18.4 67.2 26.7 101 9 36.7 16.8 73.7 24.6 110.8 3.4 15.6 5.1 31.6 4.5 47.7-.8 21.1-1.7 42.3 2 63.2 1.7 9 2.5 18.2 4.4 27.1.8 4 3 7.6 4.9 11.2 1.4 2.5 3 4.8 4.6 7.1 9.1 13.5 7.9 29.3 9.4 44.3 3.9 39.8 7.2 79.6 10.5 119.5 1.9 23.1 2.9 46.3 5.1 69.2 3.9 39.9 8.7 79.8 12.5 119.8 1.6 16.7 1.7 33.6 2.6 50.3.1 1.7.5 3.3.7 5-.1 2-.2 4-.4 6-7.2 13.6-14.5 27.2-21.6 40.7z" style="fill:url(#a)"/><linearGradient id="b" gradientUnits="userSpaceOnUse" x1="249.807" y1="643.889" x2="1037.742" y2="739.739" gradientTransform="rotate(-176.552 346.152 520.1) scale(1.00001)"><stop offset="0" style="stop-color:#907690;stop-opacity:.1"/><stop offset="1" style="stop-color:#907690"/></linearGradient><path d="M368.2 12.6c16.4 5.8 36.3 5.5 53.4 8.2 25.9 4.1 26.3 12.6 32.7 37.9 10.9 43.3 21.5 87.1 30.2 130.9-23.1-14.2-16.5-42.5-34.7-57.9-17.6-14.9-44.1-22.3-63.3-35.8 20.9-5.9-17.3-23.5-14.2-31.3 4.2-10.5 32 3.6 36.3 4.2 15.8 1.9 24.4 1.2 17.4-15-4.9-11.3-29.8-16.9-23.9-24.7C352 18.3 301 14.6 250.6 5.4c39.2 2.2 78.4 4.6 117.6 7.2zm156.2 584.3c-3.2 6.9-9.6 32.2-21.2 18.8-4.6-5.3-6-37.6-8-46-3.4-14.4-3.7-28.3-5.6-42.8-2.3-17.8-9.3-35.8-8.6-53.8 3.7-.6 5.1 1.9 4.1 7.6 3.2-1.6-6.4-50.1-7.1-54.9 6.8 4.2 13.5 8.4 20.4 12.5 1.7-3.9-19.9-18.2-23.2-23.8-7.4-12.4-6-28.2-.9-40.9 19.3 9.1 40.6 12.8 47.7 34.9 6.6 20.4 4.9 45.2 6.6 66.4 1.9 22.7 3.7 45.5 5.8 68.2.9 9.5 4.2 21.4 3.2 31-.6 5.7-4.2 28.3-10.7 17.3-.8 1.8-1.6 3.6-2.5 5.5zM277.9 88.2c41.8 15.7 90.5 46 118.3 81.9 8.5 11 37.4 37 16.2 39.7-19.2 2.5-44.8-30.6-58.4-41.3-4.5 6.3 27.9 21.2 22.7 28.8-5.9 8.5-22-5-26.3-8-16.7-11.7-33.4-24.8-49-37.9-12.7-10.7-8.5-17.8-18.5-30 3.9-3.9 9.2 5 13.4.8-6.9-12.3-20.2-21.1-30.7-30.4 3.2-4.1 7.3-5.3 12.3-3.6zM431 291.7c-10-18-14.5-39.6 9.5-15.7 7.5 7.5 16.7 19.4 20.8 29.2 5.6 13.5.8 13.2-2.6 25.8 2.6 1.3 11-13.7 11.7-14.8 8 13.3 7.2 42.8-15 37.3-17.9-4.5-24.2-30.6-39.3-39.9-1.4 2.2 9.5 14.2 10.3 15.3-20.4-1.9-60.1-41-55.6-61.2 3.3 3.4 26.6 29.7 29.3 27-6-7.8-37.3-33.3-25.9-42.8 5.3-4.4 9.7-.3 14 2.4 10.3 6.5 9.1 8.9 4.3 18.3 11.6-4.9 9.8-3.8 19.6 2.7 2.9 2 16.6 18.1 18.9 16.4zm125 506.5c-7.3-10.1-10.5-20.4-14-32.2-2.8-9.1-13-26.3 1.3-23.2-12.2-47.8-47.5-107.8-5-150.7 6.4 68.6 17.4 137 17.7 206.1zM455.6 546.8c-24.6-10.9-38.3-7.8-37.1-40.6 1.3-34.5 21.6-11.5 30.2 4.3 7.1 13.1 31.3 58.7 22.9 72.9-8.5 14.3-23.2 1.1-31.4-5.5-13.3-10.6-15.8-19.6-19.2-35.9 4.6 1 33.1 9.3 34.6 4.8zM397.3 52.7c-36.7-1-69.9-10.8-106-15.3-20.7-2.6-77.9-.5-90.4-19.3 18.5-9.2 61.3 2.1 82.6 2.8 24.3.8 59.4-2.1 79.6 13.4 1.1-10.4 33.1-2.7 22.1 4 9.4 4.9 20.6 2.6 26.5 13.3-4.8.7-9.6 1-14.4 1.1zm50.8 368c2.1-29.3 24.3 7.1 26.6 20.3 2.2 12.2 1 21.6.9 33.6-.1 10.6 10.4 38.1 6.8 46-9.6 21.3-29.5-13.7-32.3-24.2-1.7-6.7-7.2-73.1-2-75.7zm6.6-257.5c8.3 10.6 19.5 19.8 27.4 30.3 8.2 10.8 10 26 12.8 39.2 1.6 7.5 16.8 70.2-6.8 62.3-7.7-2.6-3.5-17.5-4-24.4-1-14.3-6.7-19.4-13.6-31.3-4.4-7.8-15.4-76.2-15.8-76.1zm22.1 124c-1.1 2-2.3 3.9-3.4 5.9-9.9-9.2-11.9-31.5-15.6-44.3-4.5-15.4-9-30-16.2-44.4-3.8-7.6-35.7-57.1-24.5-59.7 19-4.4 66.8 123.4 59.7 142.5zm30.3 90.1c.9 3.3-34.6-6.8-26.2-18.1 2.4 1.3 10.8 7.9 14.7 6.2-12.3-13-14.1-19.8-13.3-38 .3-6.3-.2-19.6 2.9-24.9 3.9-6.7 9.5-4.1 15.3-8.1-2.2 27.8 2.1 55.5 6.6 82.9zm-38.4 33.6c-5.6-3.3-42.6-33.1-24.4-41.4 7.7-3.5 26.7 37.6 24.4 41.4zm11 124c.9 3.5 15.7 10.4 3.2 17.5-11.5 6.6-18.2-17.7-17.9-24.8 5 3.1 12.6-.1 14.7 7.3zm-15.1-172.3c.3 8.5-15.4 5.8-14.7-2.9 4.9.9 9.8 1.9 14.7 2.9z" style="fill:url(#b)"/><linearGradient id="c" gradientUnits="userSpaceOnUse" x1="32.649" y1="686.502" x2="580.649" y2="911.502" gradientTransform="rotate(-176.552 346.152 520.1) scale(1.00001)"><stop offset="0" style="stop-color:#fcfcfc;stop-opacity:0"/><stop offset="1" style="stop-color:#fcfcfc"/></linearGradient><path d="M483.5 187.3c-1.3-2.9-3.1-5.8-3.9-8.8-1.9-7.3-3.1-14.9-4.8-22.3-2.6-12-5-24-8.2-36-3.4-12.3-7.3-24.5-11.2-36.7-1.1-3.3-2.9-6-7.4-4.7 1.1 2.1 2.2 4 3.2 5.9-.3.5-.8 1.1-1.1 1.5-9.1-6.7-21.4-5.1-30.2-13.2 9-2.5 17.8-4.4 26.8-5.9 4.2-.6 5.5-2.1 3.9-6.2-2.1-5-4-10.2-5.8-15.4-1.7-5.1-4.8-6.4-10-5.3-3.7.8-7.5.3-11.3.4-.2-.6-.3-1.2-.5-1.8 3.6-3.3 7.3-6.6 12-10.7-4.2-1.2-7-1.9-9.7-2.5-9.1-1.9-18.3-3.3-27.4-5.5-17.9-4.3-36.1-5.4-54.4-6.4-27.9-1.5-55.8-3.5-83.6-5.3-2.6-.2-5-1.3-7.5-2.1 1.1-.9 2-1.1 2.9-1 53.1 3.5 106.4 4.8 159.1 13.7 8.6 1.5 17.4 2.8 26 4.6 1.6.3 3.6 1.5 4.1 2.9 3.2 8.6 6.8 17.1 9 26 7.7 30.7 14.9 61.5 22.2 92.3 3.3 14 6 28.2 9 42.3-.6.1-.9.3-1.2.2zm14 76.9c-1.5-7.8-2.7-15.8-4.8-23.4-2.8-10.1-7.2-19.7-9.5-29.8-1.6-6.7-4.1-12.5-9.2-16.6-9.5-7.6-13-19.1-19.7-28.5-.3-.4-.1-1.2-.2-2.5 1 .9 1.6 1.2 2 1.6 4.4 5.6 8.5 11.3 13 16.8 2.1 2.6 4.4 5.4 7.2 6.8 7.6 4.1 11.6 9.4 13.1 18.3 4.3 24 11.5 47.6 12.6 72.2.1 1.9-.2 3.9-.3 5.8-1.2-4.4-1.7-8.8-3.6-12.3-2-3.6-5.3-6.4-8.1-9.6.3-.3.5-.6.9-.9 2 1.4 4 2.8 6.4 4.5.1-1.3.3-2 .2-2.4zm24.4 146c-1.3-.8-2.4-1.6-3.7-2.3-14.1-8-28.3-15.9-42.5-23.8-1.9-1.1-4.8-1.2-3.3-4.7 1.2-2.8 2.5-5.8 6.4-3.9 9.1 4.2 17.8 9.1 27.2 12.2 11.1 3.6 11.8 13.9 16.9 21.5-.2.3-.5.5-1 1zM374.5 61.8c6.2-1.4 12.5-1.6 18.2 1.6 10.6 6.2 21 12.9 31.4 19.4 3.4 2.1 6.4 4.7 9.7 7.1-.2.6-.6 1.1-.8 1.7-3.7-1.1-7.6-1.9-11.1-3.5-13.9-6.3-27.8-12.7-41.6-19.3-2.4-1.1-4.5-3.3-6.7-5 .3-.6.7-1.2.9-2zm83.4 156c-3.4-5.3-7.2-10.5-10-16.1-7.4-14.7-14.4-29.5-21.6-44.4-2.6-5.2-5.5-9.8-11.6-11.5-.6-.1-1-.2-1.5-.8 5.3-2.4 10.1-2.8 12.4 1 5.3 9.3 10.9 18.6 15.4 28.4 6.4 14 11.9 28.5 17.8 42.6-.4.4-.7.6-.9.8zM258.4 19.5c16.4-3.1 88.8 4.8 95.5 10.6-32.2-2.9-64.1-5.9-95.8-8.8l.3-1.8zm118.3 131.3c2.8 1.8 6 3.1 8.3 5.3 4.4 4.3 8.4 8.9 12.4 13.6 2.7 3.1 5.5 6.1 7.9 9.5 3.4 4.8 6.3 10 9.7 14.8 3.7 5.1 7.8 10 11.8 15-1.2.4-1.9.5-2.3.1-8.9-9.9-18.6-19.2-26.1-29.9-4.5-6.4-9.7-11.7-15.2-16.8-3-2.8-5.6-6.2-8.5-9.2.7-.9 1.2-1.6 2-2.4zm123 145.9c-4.9.8-8.3 1.3-11.4 1.8 3.4-2.4 6.7-5 10.2-7.5.6-.5 2.5-.5 2.6-.3.4 1.1.8 2.3.6 3.5-1.9 18.3-1.6 36.5 1.1 54.7 1 6.5 2.4 12.9 3.6 19.4-9.8-22.8-13.1-46.3-6.7-71.6zm-34.4 16.8c-3.4-4.5-6.9-9-10.3-13.4-5.2-6.7-10.2-13.7-15.9-20.1-4.6-5.1-10.1-9.4-15.2-14.1.3-.3.6-.7 1-1 2.3 1.5 4.5 3.4 7 4.4 7.4 3.2 12.3 8.7 16.3 15.4 3.8 6.5 8.2 12.8 12.5 19.2 1.9 2.9 4 5.7 6 8.7-.4.3-.9.7-1.4.9zM319.2 115.4c4.7-.8 29.2 10.3 31.6 14.3-9.6 1.5-26.8-6.2-31.6-14.3zm131.2 292.7c9.1 1.7 20.5 11.3 20.3 17.5-6.3.1-20.7-12.4-20.3-17.5zm8.3-288.9c-9.9-3.2-18.3-10.3-21.9-18.8 5.8.1 20.4 12.7 21.9 18.8zm21.3 308c11.4 6.7 23.7 14.6 35.1 21.2-.2.4-.4.8-.7 1.2-1-.3-1.9-.4-2.8-.9-9.8-5-19.7-10-29.5-15.2-1.2-.7-2.6-3.9-3.4-5.3.5-.2.9-.6 1.3-1zM476.8 278c-.1-2.3-.2-4.7-.2-7 0-8.9-5.3-15.9-9.1-23.4-2.6-5.1-5-10.2-7.5-15.4.5-.2 1-.4 1.5-.7.6 1.3 1.2 2.8 2 4.1 3.6 6.1 6.4 12.9 11 18.2 6.7 7.8 4.3 15.9 3.8 24.1-.5 0-1 .1-1.5.1zm-34.5 224.4c-5.9-4.1-11.6-8.1-17.3-12.4-.2-.1.9-2.9 1.4-2.9 1.7-.1 4-.1 5.1 1 4.5 4.2 8.7 8.8 13.5 13.8-1.6.4-2.4.8-2.7.5zm-39.5-234.5c9.5 8.2 19.1 15.5 28.6 23.7-.5.7-1.2 1.3-1.7 2-10-7.7-19-16.5-28.6-24.8.7-.7 1.1-.3 1.7-.9zm-1.7-236.8c4.1-4.8 15.1-5 21.5.7-7 .4-14.2.7-21.2 1.1-.2-.6-.2-1.2-.3-1.8zm-21.8 17.5c-10.2.1-15.9-7.8-24.3-12.7 12.4-2 16.1 9.4 24.3 12.7zm77.9 334.7c-4.9-5-11-5.6-14.1-14.2 8.5 2.9 13 5.3 14.1 14.2zM396.1 41.1c9.6 4.1 9 6.7 15.1 10.4-6.5 1.7-13.7-4.2-15.9-10 .3-.4.6.1.8-.4zM364 27c8.2 2.3 16.3 4.7 24.5 7-.1.4.7.9.6 1.3-8.4-1.6-17.5-1-24.9-6.4.3-.5-.4-1.2-.2-1.9zm17.3 222.7c5.7 4.1 8.9 7.9 14.7 12-5 3-13.6-4.9-14.7-12zM501 373.9c-6.5-4.6-16.4-6.1-21.7-12.8.3-.7.7-1.3 1-1.8 6.9 4 11.6 8 18.5 12.1-.2.4 2.4 2 2.2 2.5zM452.1 96.6c-8.4-.9-11.7-2.9-12.7-10.6 5 3.5 9.3 6.5 13.6 9.4-.4.4-.6.8-.9 1.2zm22.7 227.8c-5.7-2.8-6.6-4.3-4.1-9.1 1.9 2.9 3.6 5.6 5.2 8.2-.4.4-.7.7-1.1.9zm-8.5-121.9 1.5-1.8c2 1.6 4.1 3.4 6.2 5-4.1.7-6.8-.2-7.7-3.2z" style="fill:url(#c)"/></svg>