<svg version="1.1" id="Layer_2_1_" xmlns="http://www.w3.org/2000/svg" x="0" y="0" width="1549" height="777" style="enable-background:new 0 0 1549 777" xml:space="preserve"><style>.st4{fill:#ffe3fb}</style><g id="Layer_2"><radialGradient id="SVGID_1_" cx="789.224" cy="-542.202" r="683.322" gradientTransform="matrix(1 0 0 .7697 0 467.991)" gradientUnits="userSpaceOnUse"><stop offset="0" style="stop-color:#835478"/><stop offset="1" style="stop-color:#55395c"/></radialGradient><path d="M1549 777H0V11.6c8.8-2.3 12.1-4.8 21.3-4.8 8.1.1 16 2.8 24.4 2.8C53 9.6 63 11.6 70 11c7.4-.7 10.2-4 19.5-4.1 18.1-.2 34.8 5.4 52.4 5.7 18.6.3 37.8.8 56.9 1.7 42.7 2.1 84.5 7.1 127 9.1 37.3 1.7 85 .5 118.2 19.6 7.3 4.2 12.2 8.8 20.3 10.6 7.7 1.7 13.5-.3 21.2-1.2 8.8-1 19-1 27.8-.1 4.2.4 7.8 1.1 11.8 2.2 10.4 2.8 4.9 1.4 13.8.8 16.4-1.1 33.6-1.7 50.9-.9 12.1.5 24.7.3 36.7 1.7 4.1.5 8.9 2.7 12.8 2.7 4 0 6.2-1.3 9.3-1.6 18.9-1.9 39.9-.7 58.6 2.5 9.6 1.6 15.5 2.3 24-1.3 3.2-1.4 2.4-3.5 6.8-4.6 3.6-.9 8.5 3.5 11.1 2.4 4.6-2 5.2-13.7 10.3-19.5 6.1-6.8 13.6-10.1 22.5-12.1 18.5-4.1 45.4-10.6 64.1-5.9 11.4 2.8 12 1.5 23.7-.7 10.9-2 23.7-.5 34.8-.8 24.6-.7 49-3.6 73.7-3.8 24.2-.2 48.6.5 72.5 0 22.6-.5 34.7 6.2 52.3 18.8.8-2.2 1.6-4.4 2.7-7.4 10.4 3.1 20.6 6.2 30.7 9.2 5.3-4.4 9.7-4.8 16.9-5.1 8.3-.3 16.1 4.5 23.1 4.5 5.2 0 6.5-3.9 11.7-5 6.2-1.4 12.9 3.5 19.1 1.7 5.3-1.5 9.6-6.8 15.5-8.7 7.4-2.3 16-2.7 23.6-3.8 19.7-3 39.6-6.8 58.9.7 1.3-13.6 96.2 1.5 109.3.3 19.9-1.9 40.3-6.5 60.4-3.6 8.5 1.2 14.8 4.5 23.4 3.2 11-1.6 19.3-5.7 30.5-.8 5.6 2.5 17.1 10.3 18.9 16.7 2.3 8.2-5.5 13.9-7.1 21.5-3.3 16.1 3.7 51.9 8.4 67.5V777" style="fill:url(#SVGID_1_)"/></g><linearGradient id="top_x5F_base_1_" gradientUnits="userSpaceOnUse" x1="779.168" y1="-580.204" x2="779.168" y2="70.172" gradientTransform="translate(0 476)"><stop offset="0" style="stop-color:#fff;stop-opacity:.1"/><stop offset="1" style="stop-color:#fff;stop-opacity:0"/></linearGradient><path id="top_x5F_base" d="M785 223.2c-12.8 8.9-47.4 41.9-63 37.8-23.1-6.1-8.4-29-3.7-46.5 5-18.4 6.4-61.6 19.2-76.4 12.7-14.6 65.8-15.4 83-18.5-7.9 38.4-15.8 76.8-23.6 115.2 13.4 3 48.6-161.3 53.7-179.4 6.7-23.8 11.2-33.8 36.5-37.8 30.9-4.8 66.2-3.3 97.4-3.3-5.5 22.7-18.3 43.9-20.9 67.3-2.5 23 5.6 45.6 2.9 68.7-5.5 47.5-34 89.7-43.6 136.4 3.4 1 43.3-94.3 45.7-103.7 23 32 16.8 56.7 2.3 91.8 3.9 1.1 21.3-40.8 23.9-46.2 15.7 12.8 40.1 24.2 47.6 44.1 6.4 16.9-2 38.4-4.8 55.4-3.1 18.8-3 103.5-25.5 112.9 11.5 0 .1 44.5-1.2 54.5l-9.6 69.9c8.9 1.8 27-82.5 30.2-93.7 10.6-37.2 18.4-34.4 55.2-36.4-5.3 27.1-12.7 53.6-20.1 80.2-5.3 19.1-7.2 49.4-17.2 66.7-6.7 11.6-19.8 22.6-34.3 23.7-23 1.6-15.1-7.4-13.8-29.7-4.7-1.3-39 69.2-42.8 77.2-13 27.3-10.7 62.9-17.8 92.7-4.3 18-10.1 36.2-11.5 54.7-.9 11.8 4.1 31.2-3.5 41.4-13.5 18.1-63.4 26.9-82.9 33.6 11.3-67.6 31-133.9 50.4-199.5 15.6-52.5 37.5-119.3 22.7-174.7-21.7 3.7-21.1 76.2-23.4 88.6-8.7 46.2-24 91.1-34.1 137.1-8.8 40.2-13.1 81-18.1 121.7-2 15.9 1.2 22.9-13.9 30.1-14.8 7.1-54.3-.2-71.4-.2 21.9-85.3 83.8-188.9 65-278.9-17.7 17.7-26.9 39.6-39.1 60.5-10.3 17.6-2.6 17.5-28.1 18.1-8.7.2-37.8 2.8-45.1-3-12.4-10-3.2-38.6-2.2-51.7-27-3.9-42.1 161.9-67.5 179.3-21.3-62.1-11.8-114-.7-176.4 5.3-29.8 9.6-59.1 17.5-88.4 5.2-19.2 6.4-63 21.5-76.3 7.6-6.7 38.5-10.3 47.9-9.6 23.2 1.9 20.5 8.1 16.1 28.6-3.3 15.5-37.8 130.4-26.9 134 27.2-35.8 31.7-101.3 40.1-143.3 1.3-6.7 8.1-36.4 20.9-16 6.3 10.1-10 39.5-12.5 49.4 9.4 2.7 12.1-30.4 15-37 8.6-20 14.4-17.6 35.9-18 43.5-.9 86-3.8 128.9-12.3-1.1-5.6-166-.7-182.8-1.1-5.4-23.5 48.6-8 48.6-15.4-12.2-2.2-40.2 6.6-47.3-5.7-6.5-11.2 9.4-35.3 12.4-45.8-2.1-1.9-3.4-1.1-3.8 2.6-9-18 27.4-41.9 10.5-61.8-5.9 26.4-10.8 96.4-35.4 111.7-9.7 6-28.8.1-39.4-.4-21.3-1-15.9 4.2-23-11-8.4-18 11.5-95.1 21.9-112.6 6.3-10.4 86.3-72 81.6-75.2zm185.3 55.4c-13.6 37.7-29.4 74.8-39.5 113.8 26.3-35.7 39.4-73.5 39.5-113.8zm-97.9-169.4c.7 3.3 53.1-5.1 58.9-5.9-1.5-8.7-52.8 3.1-58.9 5.9zm-74 129.9c-6.4-.7-12.4 32.9-14.3 39.7 5.9 1.3 12.5-33.4 14.3-39.7zM264.2 776.7c-1.2-11.7-4-84.3-12-85-9 28.7-12.3 59-17.1 88.6-2.9 17.9-1.9 45.3-11.2 61.4-32-37.8-37.7-90.3-38.9-137.9-.5-19 13-165.9-.7-167.6-8.7 38.3-14.9 80.7-33.7 115.7-14.6 27-27.9 21.7-25.2-8.7 7.4-83.1 13.8-166.4 14.1-250.2.1-40.8 1.2-81.8.3-122.6-.6-29-16.5-90.6 15.8-99.8 14.7-4.2 47.7-4.1 55.3 8.8 5.4 9.3-1 30.8-1.4 41.7-.7 19.8.3 40 1.9 59.7 21-24.5-9.2-90.1 19.8-98.1-1-5.8-24 1.3-8.6-10.8 3.5-2.8 30.1-5.6 33.8-4.2 19.2 7.1 15.6 27.6 14.6 46.4-3.4 68.3-6.5 135 7.7 202.6 9.4 0 4.7-146.5 4.8-161.3.1-22.2-6.1-52.4-.9-74.1 1.7-7.2-.3-10.1 5.9-15.1 4.9-4 21.8-.6 22.5-5.3-22.4-2.7-28.4.2-31-25.2-2.6-24.9 11.8-50.5.1-74.8-10.3 15.3-4.5 51.4-5.3 69-1.2 25.2-.6 24.7-25.1 27.2-27.1 2.8-60.2 3.3-87.4 2.4-25.9-.9-21.3-3.2-18.9-27.5 2.6-27.2-10.7-112.8 19-120.1 21.8-5.4 63.5 4.2 86.5 5.2 7.1.3 18.7-2.3 24.8 2.3 10.2 7.7 2.3 20.9 11 30.2C288 29.3 288 16.4 313 22c13.5 3 12.8 1.8 20.1 14 2.4 4-4.1 20.3 5.2 19 4.9-29.7-4.4-31.3 29.7-28.2 16.6 1.5 47.5-4.3 60.6 7.2 13.4 11.7 9.6 47.4 10.6 64.3 1.7 27.3 9.9 54.5-21.1 59.9.4 2.8 18.3 3.8 22.3 11 5.8 10.5-2.2 45.5-2.5 57.4-1.4 58.8-3.1 117.6-4.2 176.4-2.1 111.7-8.4 224.3-37 332.9-23.2-9-20.2-53.1-41.2-12-33.9-4.8 11.3-437.4-20.3-437.4-17.4 93.3-26.2 194.6-31.1 289.4-2.3 44.8 3.9 91.9-3.1 136.2-1.6 9.3-21.1 67.6-36.8 64.6zm-11.7-264.1c-19.4-2.2-41.6 90.2-7.1 72.1 16.2-8.5 10.2-57.6 7.1-72.1zm86.5-310c3.1 0 3.5-30.4 10.7-36.1 10.4-8.4 48.8-3.7 61.8-5.6-3.4-13.8-49.9.9-58.1-4.4-12.2-7.9-1.6-35-17.3-37.3 0 24.6 10.4 33-17.9 43.4 25.5 6.9 14.5 20 20.8 40zm292.1-25.5c7.2-7.7 37.8-4.5 39-9.2-28.8-4.8-28.9-11.2-25.9-41.4 1.4-14.2-.8-53.5 8.8-64.8 5.2-6.2 32.7-8.6 42.2-5.1 18.2 6.8 13 12.3 9.6 31.2-9.8 54.2-21 108.2-29.7 162.6-3.4 21.2-4.7 45.5-19.1 62.7-6.5 7.9-34.9 37.4-44.9 40.5 1.6-8.4 28.2-116.6 14.2-121.5-15.8 48.9-17.3 101-30.7 150.5 3.1 1.3 5.1-.6 5.9-5.6-1.7 14.3-3.4 28.6-5 42.9 1.5 0 48.8-84.5 46.4-24.2-1.9 46.8-23.4 100.3-39.7 143.6-23.4-2.7-7.2-43.7-14.5-57.9-10.7 55.9-19 121.1-48.3 170.7 0-86.4-10.6-173.3-20.8-259-4.1-34.6-13.1-65.4-9.2-100.8 2.1-19 24.8-66.8 5.5-83.4-2.8 23.9-9.8 46.2-12.4 69.9-1.2 10.5-7.1 51-25.1 27.3-6.8-9 3.3-56.5 3.3-67.7 0-25.8-4.9-33.2 18.3-45.1-25.9-13.7-16.6-32.8-16.8-62.1-.1-18.3-9-55 1.9-70.6 15-21.6 39.7-7 43.5 12.7 7.1 37.1-21.2 75.6-10.7 115.1 2.9-12.9.3-45.5 12.3-53.3 12.5-8 46.6 1.2 62.3-3.2-13.7-4.7-36.4 2-48-4.1-16.5-8.6-7.6 2.6-11.3-15.8-5.7-28.2 11.6-56.6 37.7-57.7 17-.7 59.3-4.5 70.5 9 13.6 16.5-6.2 93.6-9.3 113.8zm-44.3 299.5c5.5 0 7.1-37.1 7.9-43.6-5.8 13.8-6.7 28.9-7.9 43.6zM628.2 193c-1.2 5.9-2.2 10.8-3.4 16.5 5.5-3.1 6.3-7.5 3.4-16.5zm611.2 231.8c9.7 0 57.5-7 64.7 2.8 5 6.8-4.5 55.8-8.8 61-9.7 11.7-26.1 2.8-37.1 16.7-4.7 5.9-20.8 49.9-18.2 57 3 8.1 28.7 17.2 35.3 27 12.6 18.7 9.1 34.8 7.3 58.8-4.2 56.9-21 103.8-59.6 146.4-23.1 25.6-99.1 95.4-133.1 44.1-10-15 2.3-54.5 5.7-70.4 6.7-32.2 12.8-61.5 15.5-94.4 4.8-58.4 19.2-114.1 30.6-171.4 2.7-13.5 2.3-60.9 12.8-71.1 5.2-5.1 38.1-.2 38.1-7.8-9-1.8-27.6 3.7-33.7-4.5-11.1-15.2 12.6-19.1 21.9-21.3 41.2-9.6 88-3.2 130-4.4-2.9 15.6-3.3 15.6-17.2 21.2-7.5 3-54.2 3.4-54.2 10.3zm-77.6 147.4c-13.3 8-34 55.1-21.8 68.6 10.6 11.9 22.5-3.6 28.2-12.4 13.1-20.4 8.7-39.1-6.4-56.2zM1265 125.6h-58.2c0-25.1 1.3-57 8.6-81.2 7.4-24.7 15.7-22.8 40.5-26.8 14.5-2.3 34.2-9.9 42.1 5.5 6.5 12.7-1.9 53.9-1.9 67.3 5.3 0 4.9-38.4 8.8-44.2 5.7-8.3 30.2-10.9 30.2-10.8-63.8-12.3 25.1-36.5 41.5-19.5 7.7 8-2.4 28.7-4.8 39.2-6.4 28.2-10.1 57.1-14.8 85.6-8.7 52.6-18.8 105-29 157.4-4.3 22-4.6 53.1-13.3 73.4-8.1 18.9-14.1 15.4-35.7 16.3 7-71.7 21.1-142.9 21.1-215.2-9.6-1.2-23.5 154.3-25.5 171.3-2.5 20.7 2 38.2-20.2 44.8-26.7 8-64.6-.2-93.1 5.3-3.2-65 25.1-133.1 36.7-196.4 3.3-17.7-1-52.2 13.3-64.4 5.6-4.8 53.1-8.9 53.7-7.6zm27.3 35.5c5 0 6.1-57.9 6.6-65.7-9.7 0-6.7 57.6-6.6 65.7zm-303.9 50.1c-23.8-58-22.5-117.7-1.4-176.8 4.3-11.9 1.5-15.5 12.6-21.7 4.4-2.4 33.5-2.4 37.4 1.6 10.3 10.6-13.9 55.5-14.7 70.3 6.1.8 9.9-32.3 14.3-37.5 13.1-15.3 27.6-2 44.9-4.4-11.1-7.7-24.9-6.3-37.5-6.6 8.5-31.5 42.7-30.7 39.8 4.6-4 49.1-19.3 99.1-27.2 147.8-4.8 29.5-12.5 88.8-49.4 39.6-25.9-34.5 19.5-92.5 16.4-132.7-22.5 33.8-27.4 76.8-35.2 115.8zm-260.9 663c-14.7-5.2-39-6.2-49.3-19.2-10.8-13.6-5.3-36.4-3.5-52.4 3.7-32.3 3.4-94.7 39-104.7 33-9.3 62.6-8.6 51.7 30.3-13.2 47.2-33.1 97-37.9 146zm397.6-725.7h15.2c-8.5 56-15.7 112-26.9 167.6-4.9 24.4-5.7 101.3-46.3 92.6-17.5-3.8-14.1-3.5-10.6-22.8 4-22.4 11-45.3 16.6-67.5 14.3-57.5 37.6-112.4 52-169.9zm-384.3-22.6c7.1-26.3 9.1-81 32.8-96.5 9-5.9 68.3-17.5 75.6-8.2 8.4 10.8-10.5 59.6-16.4 71.1-14.2 27.5-61.8 33.6-92 33.6zM1379 298c-12.1-2.1-29.1 1.5-35.9-10.1-7.4-12.8 7.8-40.3 11.6-52.7 5.8-18.6 9-37.6 14.3-56.4 3.7-13.2 5.8-37.3 11.3-48.5 3.3-6.6 10.4-22.5 22.5-13.1 11.6 9.1-4 56.5-5.2 68.6-3.8 35.9 7.1 82.2-18.6 112.2zm39.2-97.2c.8-49.5 2.7-98.5 8-147.8 4.7-43.2 18.4-37.3 57-37.3-4.5 18.4-47.5 190.1-65 185.1zm-294.9 251.3c28.4-8.2 7.1 45.6 4.7 63.1-6.3 44.3-19.5 81-35.9 122.4-12.2 30.9-23 64.7-26.1 97.9-2.4 25.9 8.5 68.6-15.1 88 3.6-66.8 16.5-129.4 30.9-194.6 3.7-16.9 45.6-175.4 41.5-176.8zM477.6 524c0 20.8-4.8 210.5-29.2 209.1-4.9-.3-.4-240.2 24.7-260.3 12.7 8.5 4.5 39.2 4.5 51.2zm-384-402.2C71.5 110.1 60.2-17.9 113.3 7.4c26.1 12.4 8.9 103.1-19.7 114.4zm869 710.3c15.4-50.1 22.1-99 26.1-150.8 1.1-14.3 1.8-37.7 14.6-47.8 12-9.5 24.6-8.4 26.7 4.4 3.2 19.4-22.5 57.2-27.5 77.2-3.7 14.4-5.3 28.4-7.3 43-2.1 13.3-7.9 82.2-32.6 74zM451.7 286.2c0-60.3-6.6-121.3 5-181 12.2 0 14.8 183.8-5 181zM1131.6 30c-5.8 19.4-11.6 38.9-17.4 58.3-1.4 4.7-10.2 45.7-18 22.2-6.3-19 13.5-64 15.1-84.5 6.8 1.3 13.5 2.7 20.3 4zM465.5 401.9c1-4.7 6.8-58.6 17.2-57.1 10 1.4 6.6 30 6.6 36.6-.1 25.1-14.5 67.2-23.8 20.5zm704.2-246.4c0-33.4 1.4-67.1 11.5-99.2 9.4 12.9 5.9 100.8-11.5 99.2zm-27.9-71.1c.4-6.7 2.3-81.8 22.2-50.5 9.8 15.4-7.3 47.9-22.2 50.5zM747 429.5c2.2 15.2-62.4 12.4-70.2 13.1 4-26.3 51-13.1 70.2-13.1zm344.2-15.9c-4.4 18.5-48.2 16.4-45 6.9 4.3-12.8 35.2-6.9 45-6.9zm75-171.3c-1.2 16.9-4.8 35.6-17.4 47.9 1.3-17.7-3.2-43.2 17.4-47.9zM619.7 371.6c12.7-11.2 16.4-27.1 34.7-31.5-3.1 17.9-14.3 30.7-34.7 31.5zm540.4-145c.4-3.8 3-71.7 18.9-62.2-1.7 6.1-14.2 62.2-18.9 62.2zm-88 29c.8-7.4 2-53.1 13.5-45.6 8.3 5.3-7.7 47.3-13.5 45.6zm28.6 175.8c3.4-12.4 25.4-22.1 29.2-4.9 2.9 13.4-22.1 5.7-29.2 4.9zM705.2 202.6c-3.2-7-2.3-55.9 7.4-55.9-.6 7.2-1.5 55.9-7.4 55.9zm434.9-106.9c.6 9.4 9 43.3-5.1 43-13.4-.2 2.7-34.7 5.1-43zM124.5 129.8c-4.9-7-1.3-22.5 6.7-29.2 5.7 5.4 1.1 25.7-6.7 29.2zm606.9-22.2c2.7-11.8 2.2-50.2 17.9-53.6-1.9 6.3-12.6 54.3-17.9 53.6zm354.4 53.7c1.6-7.3 1.8-41.9 16.1-38.8-1.6 4.2-13.4 39.3-16.1 38.8zM484 326.6c-9.6 1.4-8.5-10.6 2.1-10.6 13.4.1 9.2 10.6-2.1 10.6zm663.3-218.3c-6.1-7.8-3.5-14.3 5.8-15 2.7 5.7.2 12.3-5.8 15zm-114 144.3c15.4-2.7 15.9-7.8 12.7 12.7l-12.7-12.7zm152.2-209.8c1.5-4.5 3.6-18 11.9-13.2 7.5 4.4-8.2 13.4-11.9 13.2zM473.2 448.3c-1.5-1-2.8-2.1-3.9-3.5 11.1-12.7 19.7 2.5 3.9 3.5zm232.4-182 10.5 1.8c-11.7 12.4-15.2 11.8-10.5-1.8zm-30.9 58.4c-1 7.1-7 7-9.6 1.8 3.3-.6 6.5-1.2 9.6-1.8zm467.6 91c-5.3 3.8-8.3 3.6-8.9-.7 5.4-3.9 8.3-3.7 8.9.7z" style="fill:url(#top_x5F_base_1_)"/><linearGradient id="top_x5F_highlights_1_" gradientUnits="userSpaceOnUse" x1="768.4" y1="-499.975" x2="768.4" y2="-38.722" gradientTransform="translate(0 476)"><stop offset="0" style="stop-color:#fff;stop-opacity:.4"/><stop offset="1" style="stop-color:#fff;stop-opacity:0"/></linearGradient><path id="top_x5F_highlights" d="M433.5 429.8c9-31.7-6.2-65.4-4.6-97.6.7-14.1 3.5-28.2 4.8-42.3 1.6-16.7 0-32.4 0-49 .5-.4.9-.7 1.5-1.1 8.5 39.1-6.4 78.8-1.5 118.4 4.6 37.1 3.7 70.7 1.6 108.1-2.4-12-1.8-24.4-1.8-36.5zM1395 123.6c-2.3-11.3-10.4-3.9-12.8 2.1-2 4.9-.5 11.3-1.8 16.5-1.6 6.7-5.1 13-7.5 19.5-8.3 22.9-11.6 47.2-18 70.6-.7-.1-1.3-.2-2-.3 5.5-26.2 10.3-52.7 19.9-77.8 3.9-10.1 4.7-18.8 7.1-28.9 3.1-12.8 8.5-9.9 21.9-9.1 3.9 24.7 3.9 42.4-.3 67.1-.7 0-1.5-.1-2.2-.1 3.5-23.5 6.4-40.2-1.2-62.9-1.6 1.7-2.3 2.5-3.1 3.3zM672.2 259.1c3.8-35.9 12.5-71 18.8-106.6 3-17.2 6-34.4 9.1-51.5 1.7-9.4 2.5-43 11.1-47.9-12.5 68.7-25.2 137.4-37.8 206.1-.4-.1-.8-.1-1.2-.1zm419.2-1.2c-5.7 29-17 56.3-22.4 85.5-2.2 12.1-7.8 21.8-11.2 33.5-2 7-1.4 24.9-8 29.1 4.3-24.8 13-48.6 18.9-73.1 5.8-24.2 9.6-53.1 20.8-75.5.7.3 1.2.4 1.9.5zm-13.2-214c3.8-9.3 5.4-18.7.7-28.4 1.1-.1 2.2-.1 3.2-.2 3.8 23.6-3.5 47.5-7.8 71-4.7 25.2-7.2 52-16.1 76.1-4.8-14.3 6.6-44 9.4-58.8 3.6-19.1 10.6-40.3 10.6-59.7zM457.1 250.1c4.1-23.5 10.8-50.2 7.6-74-1.4-10.3-7.1-19-7.9-29.9-1-13.2.2-26.1 3.1-38.9 1.2 11.7-.9 23.2-.1 34.9.7 11.7 5.5 22.5 6.7 34.2 2.7 25.7-4.4 48.9-6.3 74-.9-.2-2-.3-3.1-.3zm647.9-47.7c3.1-9.5 13.2-66.4 32.4-54.9 5.7 3.4-1.6 73.3-7.9 77.9.7-11.3 1.7-22.4 3.2-33.6 1-7.5 8.2-31.5 4-37.7-8.1-11.8-14.4 5-16.4 11.3-4.4 13.5-8.8 26.9-13.6 40.3-.8-1.1-1.2-2.3-1.7-3.3zm-69.7 133.1c2-16.2 12.1-48 4.2-62.8-4.1-7.8-13.6-12.3-19.8-18.4-8.1-8-15.7-16-24.3-23.5-3.4 6-6.6 12.3-12.8 16 3.6-6.4 7.4-13 11.6-20.2 8.2 7.2 16.4 14.4 24.4 21.8 6.4 5.9 22.5 15.9 25.7 24.3 2.6 6.2-7.8 63.1-9 62.8zm-169.1-316c-8.7 16.2-13.7 36-19 53.5-3 10.1-15.9 35.6-9.2 44.1-9.7 4.4-6.6 13.7-12.8 20.2 10.9-39.5 20.8-81.6 38.3-118.5 1 .3 1.9.5 2.7.7zM791 125.7c-13.2 2.6-26.6 4.5-39.6 7.8-15.1 3.8-14.1 9.6-17.7 24.6-6.1 25.7-12.7 51-20.1 76.4-.8-.1-1.5-.2-2.3-.3 6.1-29.2 12.3-62.6 23.2-90.3 3.8-9.6 4.7-9.5 15.2-11.9 11.8-2.7 29.8-9.2 41.3-6.3zm171.2 208.6c-4.3 14.5-12.6 26.9-19.5 40.1-3.7 7.1-11.7 38.2-18.9 41 0-28.5 24.4-59.4 36.8-84.1.8 1 1.2 1.9 1.6 3zm242.7-197.2c5 48.2-17.3 90.4-25.5 136.9-.5-.3-1.1-.6-1.6-1 10.8-44.1 28.6-88.7 25.6-134.8.4-.3 1-.7 1.5-1.1zM629.2 452.6c2.7-15.2 4.8-30.7 8.4-45.7 2.5-10.4 6.9-18 5.8-28.7-14.8 2.3-31.9 4.4-42 16.7 6-9.1 39.6-29.5 46.2-14.4 3.1 7-6.8 28.4-8.6 35.9-2.8 11.6-2.6 29.4-9.2 39.4-.4-1.6-.5-2.4-.6-3.2zM267.7 284.3c-2.3-34.5 9.2-84.2-8.2-114.9 9-7.2 10.1 41.8 10.3 47 1 24.5.3 48.5-.8 72.9-.4-1.5-.9-3.3-1.3-5zm1162.5-175.2c-5.2 20.4-10.2 40.7-13.6 61.5h-1.6c0-20.8-2.2-44.7 2.6-65 4.2 5.9 1.6 22.2 1.6 29.6l2.4.3c2.4-10.2 4.7-20.4 7.1-30.6.6 1.4 1 2.8 1.5 4.2zM282.8 164.7c18.6-2.2 37.2-3.1 55.3.2-1.2 26.6-2.6 52.7-3.8 78.9h-1.8c0-10.7 0-21.4.3-32.2.3-10.3 3.8-27.1 1.1-37-4.2-15.8-37.2-9.2-51.1-8.4v-1.5zM692.5 327c-2.9 16.3-5.3 32.8-7.9 49.1-1.4 8.6-2.6 44.4-9.9 46.6 1.4-16.8 4.5-33.5 7.2-50.1s3.1-36.3 9.3-51.8c.4 2.1.8 4.1 1.3 6.2zM128.5 9.1c-8.6 40.7-7.8 79.2-30.2 115.1-.8-.3-1.8-.6-2.6-1 11-17.5 16.7-29.1 19.9-50.1 3.2-21.6 5.6-43 11.2-64.1.7 0 1.2 0 1.7.1zm75.7 163.2c10.6-1.3 4.8 39.7 4.9 47.2.1 10.5 9 60.3 1.2 65.3-1.2-19.7-3.6-39.2-3.7-59 0-9.9 7.1-47.8-2.4-53.5zM660 528.2c-10.3 30.1-19.2 58.1-23.7 89.6-.5 0-1.1 0-1.8-.1 2.5-34 14.7-61.4 23.9-93.6.8 1.4 1.2 2.8 1.6 4.1zM770.5 29.9c-12.6 14.3-11 31.5-15.3 48.7-4.2 16.8-11.4 33.2-16.4 49.9-.7-.1-1.2-.2-1.9-.3 3.9-18.1 11.3-34.3 15.5-52.2 4.2-18 3.1-33.2 18.1-46.1zm106.9 80.3c23.1-2.9 46-6.2 69.2-7.3 11.1-.5 17.1-2.1 20 9.9 2.7 11.5.9 25.5-.6 37.1 0-14.9 5.2-41.8-11.3-45.6-10.1-2.3-25.9 2.5-36.2 3.6-13.8 1.5-27.4 3.8-41.1 2.3zm-245.5 39.4c-.7-18.2 4.1-34.8 5.2-52.6.7-11.2.4-22.5 1.1-33.7.9.1 2 .1 3 .2-2.7 29.8-4 59.6-6.5 89.4-.9-1.2-1.9-2.2-2.8-3.3zm787.3-41.6c-5.2-7.3 1.8-34.6 3.1-44 2.5-17.9 4-35.8 12.9-51.9-11.3 31.5-9.4 64.1-16 95.9zm-609.4 94.5c-8.2 24.4-13 49.3-20.3 73.9 1.6-26.8 9.7-52.5 18.9-78.1.5 1.4.9 2.7 1.4 4.2zm410.1-176.1c-6.1 32.2-12 64.2-17.9 95.8 0-30.9 7.5-66.2 16-96 .7 0 1.2.1 1.9.2zM269.4 160.1c-2.2-15.3.4-33.8.3-49.5-.1-14.3.7-28.8 9-41-12 29.6-1.4 60.5-9.3 90.5zM508 291c5.4-28.1 7-54.6 9.2-82.9 4.8 8 2.2 31.6 1.5 40.5-1.1 12.9-5.6 31.4-11.2 43 .2-.2.5-.6.5-.6zm-240.3-6.7c3.6 12.8-.7 28.4-1.6 41.7-1 14.9-1.3 29.8 1.2 44.5-7-28.6-3.5-57.4.4-86.2zM971.4 79.8c4.2-14.2 12.6-28.5 15.5-42.6s-.7-22.9 16.5-28c-14.5 11.3-9.6 19.9-15.6 35.6-5.9 15.3-15 27.2-14.9 44.5-.4-3.1-1-6.4-1.5-9.5zm-537.9 350c0 30.7 4.2 61.8-5.1 91.5-.7-.1-1.5-.2-2.2-.3 3.2-14.5 5.6-29.5 6.5-44.3 1-15.5-2.2-31.7.8-46.9zm306.2 94.4c6.5-22.9 11.1-45 14.9-68.5 1.3 0 2.8 0 4.2.1-5.1 25-12.3 49.5-17.8 74.4-.5-2-.9-3.9-1.3-6zM940.9 236c12-18.6 19.2-34.1 25.2-55.4.7 0 1.3-.1 2-.1 3.4 6.1 6.7 12.2 10.1 18.4-.3.1-.5.3-.8.4-2.8-3.3-6.5-9.5-11.1-9.5-1.5 17.7-12.3 32.4-25.4 46.2zm354.2 5.5c0-25.6-1.5-51.5 3-76.9 4.3 25.5 2.4 54.8-1.8 80.2-.2-1-.8-2.2-1.2-3.3zM922.2 500.7c-1.5 24.8-3 49.6-4.4 74.4-.7 0-1.3 0-1.9-.1 1.1-24.8 2.2-49.6 3.2-74.4.9 0 2 0 3.1.1zm40-166.4c-3.5-8.8 3.9-60.3 11.1-65.2 2.4 8.6-3 23.7-4.6 32.5-1.9 10.9-3 22.2-6.5 32.7zm195.5-113.7c0-13.4-1-30.5 3.1-43.3 3.5-10.8 11-11.9 21.2-15.7-2.2 5.4-3.8 9.5-5.5 13.7-.5-.1-.9-.1-1.5-.2.4-2.6.8-5.1 1.2-7.7-20.2 2.2-15.8 38-16.4 53.2h-2.1zm-136.2 287c1.2-6.1 14-86.7 31.3-69.4-13.9-.1-14.8 11.8-17.6 22.9-4.1 16.5-8.1 33-12.5 49.4-.4-.9-.8-1.9-1.2-2.9zM670.4 228.2c.9 27.6-5.1 54.6-10.1 81.7-.5 0-1.2-.1-1.8-.1 4-27.2 8-54.4 11.9-81.6zm-96.5 332.2c-1.8 15.5-5.3 47.2-15.6 59.1-.7-23.9 12.8-44.8 14.2-67.2.4 2.6.9 5.4 1.4 8.1zm504.3-516.5c0 .6 0 1.3-.1 2-10.1-1.4-29.1-7.4-37.5-1.9-9.7 6.4-7.2 28.2-16.2 36.4 2.6-10.7 5.8-30.2 13.2-38.3 6.2-6.8 19.3-3.6 28.3-3.6-3.4.5-6.7 1.1-10.1 1.7v1.1c7.6.5 15.1.5 22.4 2.6zM802.7 448.5c36.1-1.7 72.3-3.2 108.5-4.9 0 .6.1 1.2.1 1.8-36.1 1.7-72.3 3.4-108.4 5.1-.1-.6-.2-1.2-.2-2zm411.5-55.2c30.4.2 60.9.4 91.3.4-8.8 6-27.9 2.7-37.9 2.4-17.8-.5-35.6-1.5-53.4-2.8zM660 528.2c-3.9-12.6 5.1-34.6 7.5-47.4 2.3-12.5.5-21.9 15.7-18.7-18.1 1-20.2 52.6-23.2 66.1zm79.7-4c2.5 12.7-6.5 28.3-10.7 40.5-4 11.5-6.6 24-11.7 35.1 5-26.1 16.4-49.8 22.4-75.6zM791 125.7c-1.6-.4-3.1-.7-4.7-1.1 7.7-1.3 30.3-9.6 35.3-2.8 3 4.1-9.4 36.6-10.9 42.5-.5-.1-1.2-.1-1.8-.2 3-13.6 6.1-27.2 9.2-41.4-10.1 1.1-18.6 2.1-27.1 3zm-82.1 163c20.6-17.1 40.6-35.9 63.1-50.5-19.4 18.4-41.5 34.3-61.9 51.6-.3-.3-.7-.7-1.2-1.1zM433.7 213c1.6-11.1 9.3-32.4 5.2-42.9-3.2-8.1-9.9-6.8-18.8-7.2 0-.5.1-1 .1-1.6 12.7.7 19.7-1.4 21.2 12.8 1.5 13.7-1.8 28.3-6.1 41.2-.6-.9-1.1-1.6-1.6-2.3zm275-24.1v-36.1c-2.3 8.9-5 19.3-7.7 29.6-.7-.1-1.3-.2-2.2-.3 2.5-11.7 2.8-28 11.1-37.2 1.7 14.4 3.7 28.9-1.2 44zm587.5-105.4c1.2-11.4.1-32.1 6.2-41.9 6.4-10.2 18.4-4.7 28.7-2.8-.3.7-.4 1.3-.7 2.1-9.6-2.2-19.6-7.5-25.8 1.9-7 10.6-2.1 29.3-7.1 41-.4-.2-.9-.3-1.3-.3zM770.3 371.1c-3.6 16-7.3 32-11.1 48.4-3.3-5.1 3.6-38.3 11.1-48.4zM647.9 95.5c-4.7 21.7 1.3 44.1-8.8 65.4 1.4-23 4.2-45.9 7.1-68.7.8 1.1 1.3 2.3 1.7 3.3zm717.2-14.4c6.2-21.8 12.8-43.6 12.3-66.1 2.7 23.6-3.2 46.4-10.8 69.1-.4-1.1-1-2-1.5-3zm-260-14.6c-1.9 8.9-5.3 47.5-13.3 51.2.3-19 8.2-37 11.5-55.6.8 1.5 1.3 3 1.8 4.4zm-617.8 287c3.4 21.1 1.2 42.2-2.8 63.3.9-21.1 1.9-42.2 2.8-63.3zm295-35.3c-3.5 15.2-7 30.3-10.7 45.3-.9-.1-1.9-.2-2.7-.3 3.4-15.2 6.9-30.3 10.2-45.5 1.1.2 2.2.3 3.2.5zm275.4-157.5c.1.5.3.9.7 1.9 1.8-4.9 3.2-9.4 4.9-13.9-3.7 21.4-8.1 42.7-10.9 64.2-.7-.1-1.3-.1-2-.2 2.3-17.4 4.7-34.7 7.3-52zM611.8 278.3c-4.4 16-.2 32.8-5.1 48.3-.7-18.7-2-37.4 3.6-55.7.4 2.5.9 5 1.5 7.4zM436.6 87.9c4.9 20.7 5.5 51.8.3 61.6 1.3-19.2-5.9-43.5-.3-61.6zm-101.4 66.7c-4.9-21.1-4.3-42.2 0-63.4v63.4zm803.5-43.4c-.5-1.8-1.2-3.5-1.6-4.8-3 9.2-6.1 18.8-9.2 28.3-.7-.1-1.2-.2-1.9-.4 3.5-13.1 7-26.3 10.5-39.3.8 0 1.8.1 2.6.1.3 5.4.5 10.7.8 16.1h-1.2zm156.4 130.3c5.4 14.7-5.5 44.3-8.1 60-.8-.1-1.5-.1-2.3-.2 2.5-19.9 5.3-40.4 10.4-59.8zM523.9 104.9c-3.4 17.1-6.6 34.3-10 51.5-.1-18.3 3.2-36.1 8.4-53.9.6.9 1 1.6 1.6 2.4zm5.4 14.9c4-18.2 9.6-43.7 13.6-61.8 1.6 18.9-8.2 43.8-11.5 62.1-.8-.2-1.5-.2-2.1-.3zm-5.2 14.2c18.1-5.3 44.8-.8 63.5.8-21.2 2.1-42.2-.8-63.5-.8zm107.8 15.6c6.6 7.3-2.8 38.7-4.3 48.4-4-12.9 2.6-35 4.3-48.4zm394.8-86.1c.5-19 9.3-35.3 14.4-52.1.8.1 1.5.3 2.3.4-5.4 16.9-10.9 33.7-16.7 51.7zm51.3 108.6c3.9-15.7 7.8-31.3 11.7-47.1.9.1 1.9.3 2.7.4-4 15.7-8.1 31.3-12.1 47-.7-.1-1.5-.2-2.3-.3zM795.2 423.7c19.2-4.8 43.2-1.7 62.8.9-21 0-41.9.3-62.8-.9zm-591-251.4c.5.4 1.1.7 1.6 1.1-22 1.8-44.8 1.3-66.6-2.6 21.6-.7 43.3 1.2 65 1.5zm1226-63.2c-3.7-11.1 5.6-30.4 8.7-41.5.7.1 1.5.2 2.2.3-4.3 13.8-4.3 27.9-10.9 41.2zm-164.3 316.4c-13.3.7-26.8 1.6-40.2 2.3 0-.7-.1-1.5-.1-2.3 16.4-1.5 32.9-2.7 49.6-1.9-3.1.8-6.2 1.3-9.3 1.9zM582 484.9c1.8-14.1 3-29.1 7.2-42.7 0 15.8-2.5 31-4.7 46.7-.8-1.3-1.6-2.7-2.5-4zm573-55.3c-2 10.3-4 20.5-6.1 30.7-.4 0-.9-.1-1.3-.1 0-6.4-1.9-32.9 7.5-31.5-.1.3-.1.6-.1.9zM436.6 87.9c-.5 1.5-1.1 3-1.6 4.5-1.6-16.4-3.1-35-4.7-51.4.5-.1 1.1-.1 1.6-.2 2.9 15.9 3.4 31 4.7 47.1zm734.5-6c-.9-9.4 4.4-17.5 7.7-26.2.8-.1 1.5-.2 2.3-.3 1.8 3.6 3.5 7.4 5.3 11-.5 1.1-1.1 2.2-1.6 3.3-1.2-2.6-2.3-5.1-3.5-7.7-.8 0-1.5-.1-2.3-.1-2.2 7.8-4.3 15.6-6.5 23.3-.5-1.1-1-2.2-1.4-3.3zM1105 202.4c4.6 9.3-4.1 32.2-6.1 42.2-.5-.1-1.1-.1-1.6-.2.5-14.2 3.4-28.2 7.7-42zm-295.2.1c-3.8-12.4 6.2-36.7 9.1-49.3.9 16.8-5.3 32.9-9.1 49.3zM738.3 75.8c-3.4 13.3-6.7 26.7-10 40l-2.4-.3c3.6-16 7.4-32 11.1-47.9.3 2.6.7 5.4 1.3 8.2zM683.2 462c-1.9-.4-3.6-.7-5.5-1.1 20.6-2.6 41.4-5.2 62-7.8.1.7.3 1.5.4 2.1-18.8 2.4-37.8 4.5-56.9 6.8zm304.5-265.8c2.7-11.6 5.3-23.1 8-34.8.9.1 2 .3 3 .4-3.1 12.7-6.1 25.2-9.2 37.9-.6-1.2-1.3-2.3-1.8-3.5zm178.4-164.7c0 14.8-7.7 33.3-11 47.6-1.4-14.9 4.8-32.8 7.8-47.6 1.2-.1 2.1-.1 3.2 0zM619.7 310.4c-2 11-3.1 24.2-8.5 34.1 3.6-11.9-1.5-24.8 7-36.1.6.6 1 1.3 1.5 2zm509.7-278.1c-3 15.3-5.9 30.5-8.9 45.7-.8-.1-1.6-.2-2.4-.2 2.7-15.1 9.8-31.5 5.9-46.4 1.6.3 3.5.6 5.4.9zm-605.5 72.6c-7-9.8-1.1-38 1.1-49.2 0 16.5-.3 32.8-1.1 49.2zm-191-82.4c1.2 15.7 8.1 34.2.1 48.4-.9-14 .9-32.7-.1-48.4zm321.5 322c-17.1 1.4-23.7 13.8-33.5 26.5-.7-.3-1.3-.6-2-.9 9.1-11.9 16.9-32.9 35.5-25.6zM524.1 134h2.7c-1.5 12.9-2.8 25.8-4.3 38.7-.9-.1-1.9-.1-3-.2 1.5-12.8 3-25.6 4.6-38.5zm690.1 259.3c5.4.4 10.9.8 16.3 1.1-17.8 1.5-42 9.1-59.2 5.3 14.3-2.1 28.6-4.3 42.9-6.4zm-67.3-114.2c2-16.4-1.8-37.1 19.5-36.1-17.6 7-14.5 18.1-17.5 36.3-.6 0-1.3-.1-2-.2zm-48.2 151c5.9-14.3 15.2-20.2 25-3.7-5.1-2.6-10.3-5.2-15.4-7.8-3 4.3-5 7-6.4 12.1-1.2-.3-2.3-.4-3.2-.6zm7.5-382.4c.7-9.5 1.3-19.1 1.9-28.5.4-.1.8-.1 1.3-.2 1.5 7.7 1.6 8.2 9.2 11.4-11.3-1.9-9.7 14.3-10.8 21.8-.5-1.6-1.1-3.1-1.6-4.5zM573.9 560.4c-2-13.6 2.2-30.7 8.1-43.1 1 13.5-5.4 29.9-8.1 43.1zm200.8-87.1c4-12.3 3.6-25.6 19.5-22.3-13.5-.1-14.9 16.8-18.2 26.6-.4-1.5-.8-2.9-1.3-4.3zM621.1 280.4c1.9-12.6 3.6-25.1 5.5-37.7.8.1 1.6.2 2.6.2-1.9 12.6-3.6 25.1-5.5 37.7-1 0-1.8-.1-2.6-.2zM845.8 46.6V17.3h3c3.4 10.1 2 20.2-1.5 30.4-.4-.4-.9-.7-1.5-1.1zm238.3 177.3c0-6.8.1-8.7-4.1-13.8-5.2 5.2-5.6 10.2-6.6 17.5-.5-.1-1.2-.1-1.8-.2.7-4.8.2-19.6 8.5-19.3 8.4.3 6.6 10.7 6.6 15.9-1-.1-1.8-.1-2.6-.1zm120.8-86.8c-.5.4-1.1.8-1.6 1.1-4.4-9.9 37.2-9.4 42.7-9.8.1.6.1 1.2.3 2-13.1 1.1-30.2-.6-41.4 6.7zM594.1 373.7c3-13 5.9-25.9 8.9-38.9.8.1 1.5.2 2.3.2-2.1 14.8-6.1 29.4-9.7 43.9-.5-1.8-1.1-3.4-1.5-5.2zm414-222.1c3.2-11.6 6.5-23.2 9.7-34.9 1.1 13-4 25-8.2 37.3-.5-.8-1-1.5-1.5-2.4zM508 291c-.6 12.4-.8 24.8-1 37.2-2.8-10.2-3.9-27.5 1-37.2zM797.7 45.8c-2-4.7-.1-27.2 8.1-20.7l-8.1 20.7zm341.3 9.3c1.1-8.9 1.5-16.7 5.1-25 1.5.8 3 1.6 4.4 2.4-5.8 6.1-5.6 10.6-6.4 19.1.7.2 1.2.3 1.9.5 2.6-1.7 5.1-3.3 7.8-5 .4.3.8.7 1.2 1-3.8 2.7-7.6 5.5-11.2 8.2-.9-.3-1.9-.8-2.8-1.2zM697.9 429.8c-14.8-1.5-17.1.3-22.6 13.2-3.4-20.3 17.6-16.4 31-14.4-2.7.3-5.5.7-8.4 1.2zm-115.6 91.5c-.9-12-.3-24.3-.3-36.4 5.9 9.5 3.5 25.9.3 36.4zM400.8 163.4c-17.4 1.2-34.7 2.4-52 3.6-.1-.6-.1-1.1-.3-1.8 17.4-1.2 34.7-2.5 52-3.8.1.7.3 1.3.3 2zm604.6 21.4c-3.1 10.9-6.1 21.8-9.2 32.7-.8-.1-1.6-.2-2.4-.4 3.2-11.9 6.6-23.8 9.8-35.7.7 1.2 1.2 2.3 1.8 3.4zM594.1 373.7c2.5 11.2 3 20.4-3 30.7 1-10.2 1.9-20.4 3-30.7zm17.7-95.4c-2.2-11 2.1-20.7 5.1-31.4.8.1 1.6.3 2.4.4-2.5 10.4-5.1 20.8-7.5 31zm97.1 10.4c.4.4.9.7 1.3 1.1-6.1 7.2-7.1 13.5-11.1 21.5-5.1-10.2 1.2-17.1 9.8-22.6zm88.8-242.9c3.3-8.5 5.4-17.8 11.9-24.3-4.3 11.5-8.8 23.6-13.2 35.7-.5-1-.9-2.1-1.5-3 .9-2.8 1.9-5.6 2.8-8.4zm-59.4 30c-.7-5-3.2-14.4.2-18.9 1.9-2.5 12.2-7.6 12.2-.6-2.7.3-5.5.5-8.2.8-1.6 6.2-2.9 12.5-4.2 18.7zM629.2 452.6c.1.8.3 1.7.4 3.2 1.1-1.5 1.6-2.4 2.2-3.2-2.7 9.3-5.5 18.6-8.2 27.9-.8-.1-1.6-.3-2.4-.4 2.6-9.3 5.3-18.4 8-27.5zm492.1 4.1c-1.2 9.1-2.4 18.4-3.6 27.5-2.8-8.9-1.2-17.6.9-26.4.8-.3 1.8-.7 2.7-1.1zm243.8-375.6c3.4 6.8-2.8 19.3-4.7 26.6-1.5-9.3.1-18.1 4.7-26.6zM1183.5 120c-.9 7.3-2 14.6-3 21.9-.8-.1-1.8-.1-2.6-.2.8-7.3 1.8-14.6 2.6-21.9.9 0 1.9.1 3 .2zm-12.2 279.7c1.8.4 3.6.7 5.4 1.1-15.9 2.4-15.2.6-21.7 14.6-3.6-11.7 1.2-16.2 16.3-15.7zm-22.8-367.2c-1.5-.8-3-1.6-4.4-2.4 6-.4 20.2-5 22.1 1.3-5.9 0-11.8.6-17.7 1.1zM795.2 423.7c3.5.3 7 .6 10.5.8-14.7 1.2-29.5 2.6-44.2 3.8-.1-.7-.1-1.3-.3-2.1 11.3-.7 22.7-1.5 34-2.5zM626.3 194.2c2.5 8-1.2 17.5-2.7 25.7-.9-.1-1.9-.2-3-.3 2-8.5 3.9-17 5.7-25.4zM274.7 37.4c-2.4-7-5.7-15.1-4.4-22.4 3 8.7 3 10.9 5.8 19.3-.6 1-1 2-1.4 3.1zm-142.8 66.7v26.2h-1.8v-26.2h1.8zm1164.7-91.8v36.6h-1.5V12.4c.5-.1 1.1-.1 1.5-.1zM1139 55.1c.9.4 1.9.8 2.8 1.2.6 10.1 1.2 19.2 0 29.2-.9 0-1.9 0-2.8-.1V55.1zm-396.7 2c2.7-.3 5.5-.5 8.2-.8-2.7 7.7-5.3 15.4-8 23-.8-.2-1.6-.3-2.4-.5 1.4-4.2 10.7-21.1 2.2-21.7zm440.6-12.9c.3-7.8 12.7-25.1 19.3-10.9-16.3-6.9-13.7 5.8-19.3 10.9zm112.5 76.4V142h-.7c-1.7-15.7-8.2-12.9-22.7-12.9v-1.5c5-.2 23.3 2.4 22.1-7.1.3 0 .9 0 1.3.1zm-124.3-38.7c3.7 7.4-.1 22.1-.8 30.4-.9 0-1.9-.1-2.7-.1 1-10.1 2.2-20.2 3.5-30.3zm13.6-12.2c.5-1.1 1.1-2.2 1.6-3.3 2.7 9.4 1.8 18.9-1.6 28.3v-25zm210.3 53.9c.7-.8 1.5-1.7 2.7-3.1 2.6 7.9-.6 18.5-1.6 26.8h-1.1v-23.7zM940.6 246.2c-2.4 8.2-4.7 16.3-7.1 24.5-.7-.1-1.2-.2-1.9-.3 2.2-8.2 4.3-16.4 6.5-24.6.8.1 1.6.2 2.5.4zm-679.5-77.9c-6.4 5.2-27.8 3.5-35.9 4.1-.1-.5-.1-1-.3-1.5 12-.9 23.6-4.2 36.2-2.6zm436.8 261.5c14.4-2.1 29.1-1.2 43.6-1.2.1.4.1.9.3 1.3-14.5 1.8-29.3.4-43.9-.1zm0 0c11.3.4 22.7.8 34 1.2-13.8.7-27.5 1.3-41.3 2.1-.1-.3-.3-.7-.3-1 2.6-.9 5.1-1.6 7.6-2.3zm345.7-169.1v-7.4c-3.5.3-6.6.6-9.7.9-.1-.4-.4-.7-.5-1.1 11.2-3.5 15.7-5.2 11.8 8.2-.5-.2-1-.4-1.6-.6zM1155 429.6v-.9c12.8-1.3 25.8-2.7 38.6-4 .1.7.3 1.5.3 2.1-13 1-25.9 1.9-38.9 2.8zm-149.6-244.8c-3.7-8.2 1.5-24.1 2.8-33.1 4.1 5.7-1.9 25.9-2.8 33.1zM774.7 473.3c2.5 7.5-.9 15.2-2.4 22.9-.9-.1-1.9-.2-2.8-.3 1.7-7.6 3.4-15.1 5.2-22.6zm343.9-443c-3.7-.6-6.4-2.4-8-5.5 2.9.5 22.6 1.5 18.6 7.5-3.6-.4-7.1-1-10.6-2zM992.4 443.8c8.4-1 16.9-2.2 25.2-3.2.1.6.3 1.3.4 2-8.5 1-17.1 2-25.6 3v-1.8zm152-350.5c3-.6 5.9-1.1 10.5-2.1-1.1 6.1-1.9 11.2-2.8 16.4-.5 0-1.2 0-1.8-.1.6-8.3 4.1-13.7-8-12.5.6-.5 1.4-1.1 2.1-1.7zM845.8 46.6c.5.4 1.1.7 1.5 1.1-3.1 8.2-6.2 16.4-9.4 24.6.3-9 3.2-17.5 7.9-25.7zm175.7 461c2.6 6.5-2.2 16.3-4.1 23-.8-.1-1.5-.2-2.3-.3 2.3-7.6 4.3-15.1 6.4-22.7zM482.2 194.3c7.6-.5 15.1-.9 22.7-1.5 0 .7.1 1.3.1 2.1-7.6.5-15 .9-22.5 1.5-.2-.8-.3-1.4-.3-2.1zm559-159.6c2.4-7.3 4.7-14.5 7.1-21.8.8.2 1.6.3 2.4.5-2.4 7.3-4.7 14.5-7.1 21.8-.8-.2-1.6-.4-2.4-.5zM619.7 310.4c-.5-.7-.9-1.5-1.5-2.1.5-7 .9-13.9 1.5-20.9.8 0 1.8.1 2.6.1-.8 7.7-1.8 15.3-2.6 22.9zm558-37.3c.5.3 1.1.6 1.6 1-1.6 7.7-3.4 15.5-5 23.1-.7-.1-1.3-.2-1.9-.2 1.8-8 3.5-16 5.3-23.9zm-39-161.9h1.3v26.6h-1.3v-26.6zM971.4 79.8c1.5 9.4 1 17.9.4 27.3-.8 0-1.5 0-2.3-.1.7-9 1.3-18 1.9-27.2zm81.4 358.5c-.5-.4-1.1-.8-1.6-1.3 9.6-2.3 19.4-3.6 29.5-1.7-9.4 1-18.6 2-27.9 3zm227.2-90.9v-20.7h1.1v20.7h-1.1zM877.4 110.2c2.7.4 5.4.7 8.1 1.1-8 .9-16 1.9-24 2.7-.1-.6-.3-1.2-.4-1.9 5.5-.5 10.9-1.2 16.3-1.9zm186.2 302.6c8.6-.8 17.1-1.6 25.8-2.4.1.5.1 1.1.3 1.7-8.5.8-17.1 1.7-25.6 2.4-.2-.5-.4-1.1-.5-1.7zm10.5-370.2c-6.1-.4-12.3-.8-18.3-1.3v-1.1c8.2-1.2 10.9-1.4 18.3 2.4zM794.9 54.1c.5 1 .9 2.1 1.5 3-2.3 5.3-4.7 10.5-7 15.8-.5-.1-1.1-.2-1.5-.3 2.3-6.2 4.6-12.4 7-18.5zm520.3-39.4c-2 5.6-4.2 11.3-6.2 16.9-.7-.1-1.3-.3-2-.4 2-5.7 3.9-11.4 5.9-17.1.8 0 1.6.2 2.3.6zm-19.8 105.9c-.4 0-.9-.1-1.3-.1 6.3-4.9 18.8-2.8 26.6-3-8.2 2.7-16.6 2.6-25.3 3.1zm-633.6 49.6h-25.1c0-.2-.1-.4-.1-.5h25.2c-.1.2-.1.4 0 .5zm444.4-122.5c2.2 6.6.2 12-1.1 18.9-2.2-6.6-.2-12 1.1-18.9zM987.7 196.2c2.4 5.3 1.1 8.9.5 14.8-.9-.1-1.8-.1-2.7-.2.7-4.8 1.4-9.7 2.2-14.6zm151 217.4c-3.9 1.6-7.3 2.9-11.2 4.4 1.2-4.7 4.1-5.9 11.2-4.4zm-864-376.2c.4-1 .9-2 1.3-3 1.3 4.5 2.7 9 4 13.5-1.1.2-2 .3-3.1.5-.7-3.8-1.5-7.4-2.2-11zm373.2 58.1c-3.1-6.9.1-21.4 1.6-28.8.5.7.9 10.7 1.5 11.4-1.1 5.8-2 11.6-3.1 17.4zm400.7 322.1c-1.2 3.2-2.6 6.4-3.8 9.7-.8-.2-1.6-.3-2.4-.5 1.2-3.2 2.4-6.4 3.8-9.7.8.2 1.6.3 2.4.5zM697.7 308.2c2.9 5.8-2.8 13-5.1 18.8-1.6-8.3 1.2-11.3 5.1-18.8zm568.2 117.3c10.9-2.1 21.5-1.8 32.6-1.8 0 .3 0 .6.1.9-11 .4-21.8.6-32.7.9zm-507.2 30.3c-1.3 0-2.8 0-4.2-.1 5.7-1.5 11.5-2.9 17.1-4.4.3.7.5 1.5.8 2.2-4.5.8-9.1 1.6-13.7 2.3zm362.6.9c-.9.4-1.9.7-2.8 1.1-.5-6.7 6.7-5.7 12.1-6.5-3.1 1.8-6.2 3.7-9.3 5.4zm-616-133.6c2.3 8.2 1.5 16.5 1.5 25h-1.5v-25zm204.5-54.5c-2.6 2.2-4.7 4-6.9 5.9-1.7-6.3-.2-7.6 6.9-5.9zM433.7 213c4.1 5.8 1.5 19.7 1.5 26.8-.5.4-.9.7-1.5 1.1V213zm881.6-93.6c7-2.3 12.1-1.3 19.5-.4 0 .4-.1.8-.1 1.3-6.6-.3-13-.6-19.4-.9zM651 78.1c-.5-.7-.9-10.7-1.5-11.4.7-3.6 1.5-7.4 2.2-11 .8.1 1.8.2 2.6.3-1.1 4.2-2.2 17.8-3.3 22.1z" style="fill:url(#top_x5F_highlights_1_)"/><g id="shading_x5F_mid"><linearGradient id="SVGID_2_" gradientUnits="userSpaceOnUse" x1="774.5" y1="305.769" x2="774.5" y2="-198.012" gradientTransform="translate(0 476)"><stop offset="0" style="stop-color:#55395c;stop-opacity:0"/><stop offset=".5" style="stop-color:#55395c"/><stop offset="1" style="stop-color:#55395c;stop-opacity:0"/></linearGradient><path style="opacity:.5;fill:url(#SVGID_2_);enable-background:new" d="M0 283.6h1549V777H0z"/></g><g id="top_x5F_ridges"><path class="st4" d="M1049.8 8.5c-.7 1.3-1.1 2.3-.9 2 11.7 0 24.5-1.4 36.1.9 10.4 2 11.7 5.7 19.6 13.4 2-1.1 4.6-2.8 6.6-3.9 9.8 5.1 20.1 8 30.7 11 .1-.4.4-2.2.8-4.6 10.7-.5 21.7-1.1 32.8-1.7-.3.5-.7 1.1-.9 1.7 3.8 1.9 7.6 3.8 11.9 5.9 5.4-10.5 17.6-3.5 26.6-6.6 12.1-4.3 18.6-9.2 32.6-10.6 13.8-1.4 27.6-2.6 41.4-3.7 11.7-.9 13.3 1.3 23.5 6 .4-.5.8-1.1 1.2-1.7-1.8-.7-3.5-1.6-6.9-3 24.9-4.5 54.3-5.7 79.1 0 25.6 5.8 51 1.2 77.1-.5 9.2-.6 27.4-5.1 34.9 2.1 10.8 10.3-9.6 2.8-15.4 2.1-8.5-1-31.5-2-38.8 1.6-10.6 5.2-10.5 21.5-14.1 31.7-1.1-10 .7-19.7 3.9-30.1-9.5.5-21.5-.8-30.7 1.7-8.6 2.4-7.4 12.7-12.4 14 0-9.3 1.3-13.5-6.8-17.9-7.6-4.1-21.5-2.3-29.6-2.2-8.6.1-21.4-2.2-29.6.2-8.8 2.6-9.3 7.5-13.5 16-.5-.1-1.2-.2-1.8-.4 1.1-3.3 2-6.7 3.1-10.1-3.8-1.3-7.4-2.7-11.7-4.4v16.2c-.4 0-.9.1-1.3.1-1.1-5.9-2.2-11.7-3.4-18.4-21 2-47.9.9-67.8 8.2-8.2 3-13 8.2-22.3 8.7-11 .6-11.7.2-17.6 10.5-.7-.1-1.2-.3-1.9-.4.5-2.4.9-4.7 1.5-7.6-18.1-.9-40-13.1-41.6 12.7-8.5-13.2-14.4-14.9-30.6-18.9-3.5 14.7-6.9 29.2-10.2 43.6-.5-.1-1.2-.1-1.8-.2 3.2-18.9 11.3-44.5-13.6-51.8-1.6 8.9-3.2 17.4-4.9 25.9-.8-.1-1.5-.1-2.3-.2.8-6.1 5.4-20 1.2-25-5.3-6.4-21.1-5.5-28.5-6.1-3.2 5.6-6.5 11.2-9.7 16.8h-.5c1.2-4.7 5.6-12.3 1.7-16.1-4-3.8-24.4-1.1-29-1.1-6.3 0-18.4-2.2-22.9 2.9-5.1 5.9 1.7 16.4-3.2 22.8-.7-8-1.3-15.8-2.2-24.5-23.1-2.6-48.2 1.9-71.4 3.1-23.6 1.2-40.5-3.1-57.5 13.9-.5-.2-.9-.4-1.5-.6 1.1-2.5 2.3-5 3.5-7.6-3-1.2-5.7-2.5-8.9-3.8-.5 1.3-1.1 2.6-1.5 3.8-1.2-8.9-20.6-4.4-25.8-3.5-9.8 1.7-11.7 6.7-20 10.6.4-2 .9-3.8 1.5-6.6-38.1-1.9-43.2 21.3-49.7 53.1-.5-.1-1.2-.1-1.8-.2 0-12.3 2.7-23.6-13.1-20.8-.8 4-1.6 8.3-2.4 12.5H738c-.3-2.2-.5-4.4-.9-7.5-12.4 2.2-14.2 1.7-18.8 13.6-2.2-5.3 5.4-13.3-8.1-14.1-.7 3.6-1.5 7.3-2.3 11-.5 0-1.2-.1-1.8-.1V59.8c-11.6 0-34.5-4.8-45.3-.9-13.7 4.9-4.1 27-15.1 34.7 1.3-10.3 2.8-20.5 4.2-30.5-10.5-9.2-37.1-5.5-50.1-6.3-17-1.1-34-2.7-51.1-2.7-1.6 4.7-3.2 9.2-4.7 13.8-.7-.1-1.3-.2-2-.3.3-2.4.4-4.9.7-7.2-5-1.5-9.8-2.9-14.8-4.5-.8 1.6-1.9 3.3-2.8 5.2-.2-11.6-31.6-6.4-39-6.4-1.5 14.6-3.1 29.5-4.7 45 0-9.4 3.6-30.4-1.6-38.1-9.1-13.6-13.1-.7-14.2 8.5h-2.2c0-16-3.8-20-18.4-27.2-13-6.4-27.2-10.3-41.5-12.5-16.1-2.5-32.7-3.4-49-4.5-19.7-1.3-15.8 7.4-17.5 25.9h-1.6c0-21.3 2.6-26.9-20.5-28.4-5.3-.4-18.3-3.5-23.3-.7-3.3 1.9-2.3 6.2-5.4 7.1v-6.6c-28.4-9.3-64.3-4.3-93.9-6.8-10.3-.9-24.6-6.6-34.5-4.8-12.1 2.3-4.2 6.7-11 15.1-2-12.4-5.9-12-18-13.7-3.1 13.8-6 27.5-9.4 41.2-.8-.1-1.6-.1-2.4-.2 2.3-14.1 4.6-28.1 6.9-42.7-13.3-1.2-25.2-2.3-37.3-3.4l-9.3 48.9c-.5 0-.9-.1-1.5-.1 1.6-13.8 3.2-27.6 4.9-41.1-17.1-8.2-43.3 7.7-56.2-10.1 12-.5 24 .8 36 .9 9.1.1 17-2.7 25.6-3.2 17.4-1 34.2 7.2 50.9 7.5 8.4.1 14.7-4.1 23.6-3.1 10.3 1.2 20.4 4.1 30.9 4.9 22.2 1.7 44.5 2.3 66.7 3.9 38.8 2.7 77.7 4.5 116.6 7.8 19.2 1.6 36.6 2.4 55.1 8.1 11.3 3.5 19.1 7.2 28.8 13.2 1.6 1 17.9 6.9 17.9 6.5 17.5-3.4 46.4-6.3 61.3 3.5 1.1-3.9 3.3-6.9 6.8-9 9.4 9.4 42.8 5.3 56.2 6 11.1.6 39.1-4.3 47.4 5 3.2-2.3 4.6-6.6 9.7-3.2 8.3-4.9 30.3-.4 39.6.3 10.9.8 26.2 9.1 36.4 2.9-.5-.7-1.3-1.9-2-3 6.7-5.8 14.6-2.5 22.8-2.4-1.7-11.4 9.9-21.7 18.1-27.6 9.3-6.7 9-3.8 18.8-3.9 11.2-.1 23.5-3.1 34.7-4.3 10.3-1.1 28.9-7 38-.5-2 .7-4 1.6-5.9 2.2 4 .2 4 .2 13.6-6.8.6 1.8 1 3.6 1.2 5.5 31.4-1.2 62.7-3.9 94-6 26.2-1.8 56.5-6.9 82.5-2.2z"/><path class="st4" d="M1301.6 51.6c1.1-5 2.2-10 3.2-14.9l2.4.3c-1.1 5-2.2 9.9-3.2 14.8-.8-.1-1.6-.1-2.4-.2z"/></g></svg>